<svg xmlns="http://www.w3.org/2000/svg" width="24" height="24" viewBox="0 0 24 24" fill="#0EA5E9"><path d="M12 2C6.48 2 2 6.48 2 12s4.48 10 10 10 10-4.48 10-10S17.52 2 12 2zm0 2c1.85 0 3.55.63 4.9 1.69L14.5 8.1A5.96 5.96 0 0 0 12 7.5c-.9 0-1.74.21-2.5.59L7.1 5.69A7.96 7.96 0 0 1 12 4zm-6.31 4.1L8.1 10.5A5.96 5.96 0 0 0 7.5 12H4.04c.1-1.42.6-2.74 1.4-3.84l.25-.06zM4.04 13H7.5c.1.9.37 1.74.72 2.5L5.81 17.9A8.06 8.06 0 0 1 4.04 13zM12 20a7.96 7.96 0 0 1-4.9-1.69L9.5 15.9c.76.38 1.6.59 2.5.59s1.74-.21 2.5-.59l2.41 2.41A7.96 7.96 0 0 1 12 20zm6.31-2.1L15.9 15.5c.35-.76.62-1.6.72-2.5h3.34a8.06 8.06 0 0 1-1.4 3.84l-.25.06zm1.65-4.9H16.5c-.1-.9-.37-1.74-.72-2.5l2.41-2.41A8.06 8.06 0 0 1 19.96 13zM12 15a3 3 0 1 1 0-6 3 3 0 0 1 0 6z"/></svg>
