<svg width="24" height="24" viewBox="0 0 24 24" fill="none" xmlns="http://www.w3.org/2000/svg">
  <path d="M20.625 6.547h-1.875a2.39 2.39 0 0 0 .469 1.406c.3.403.731.672 1.218.762a2.5 2.5 0 0 0 1.407-.141c.448-.197.82-.534 1.058-.959A2.39 2.39 0 0 0 23.25 6.14a2.39 2.39 0 0 0-.703-1.688 2.44 2.44 0 0 0-1.703-.703h-.047a2.344 2.344 0 0 0-1.547.703c-.3.3-.506.674-.59 1.078h1.965c.516 0 .938.422.938.938v3.656a3.28 3.28 0 0 0 1.875-2.953V6.547h-.563z" fill="#5059C9"/>
  <path d="M14.25.75a2.625 2.625 0 1 0 0 5.25 2.625 2.625 0 0 0 0-5.25z" fill="#5059C9"/>
  <path d="M14.25 7.5H6.375c-.828 0-1.5.672-1.5 1.5v6.75c0 3.314 2.686 6 6 6s6-2.686 6-6V9c0-.828-.672-1.5-1.5-1.5h-.125zm-1.5 8.25a.75.75 0 0 1-.75.75h-3a.75.75 0 0 1-.75-.75v-3a.75.75 0 0 1 .75-.75h3a.75.75 0 0 1 .75.75v3z" fill="#7B83EB"/>
  <path d="M10.875 7.5H6.375c-.828 0-1.5.672-1.5 1.5v6.75c0 3.314 2.686 6 6 6V7.5h-.001z" fill="#4B53BC"/>
</svg>
