<svg width="24" height="24" viewBox="0 0 24 24" fill="none" xmlns="http://www.w3.org/2000/svg">
  <path d="M24 7.875v8.25c0 .621-.504 1.125-1.125 1.125H14.25V6.75h8.625c.621 0 1.125.504 1.125 1.125z" fill="#1490DF"/>
  <path d="M24 7.875V12h-9.75V6.75h8.625c.621 0 1.125.504 1.125 1.125z" fill="#28A8EA"/>
  <path d="M14.25 6.75v10.5L0 19.5V4.5l14.25 2.25z" fill="#0078D4"/>
  <path d="M7.125 9.75c-1.864 0-3.375 1.511-3.375 3.375s1.511 3.375 3.375 3.375 3.375-1.511 3.375-3.375S8.989 9.75 7.125 9.75zm0 5.25c-1.036 0-1.875-.839-1.875-1.875S6.089 11.25 7.125 11.25 9 12.089 9 13.125 8.161 15 7.125 15z" fill="white"/>
</svg>
