<svg width="159" height="23" viewBox="0 0 159 23" fill="none" xmlns="http://www.w3.org/2000/svg">
<g clip-path="url(#clip0_1720_2)">
<g clip-path="url(#clip1_1720_2)">
<path d="M159 -0.5H131.812L145.405 22.7214L159 -0.5ZM146.496 15.5758L146.526 7.83519L153.295 4.10189L146.496 15.5758ZM137.527 4.1018L144.295 7.83511L144.324 15.5757L137.527 4.1018ZM152.303 2.37587L145.405 6.21678L138.708 2.37587H152.303Z" fill="#004996"/>
<path d="M12.0222 10.8572C13.1445 10.8065 14.2026 10.3381 14.9737 9.5506C15.7449 8.76317 16.169 7.71809 16.1568 6.63536V3.75958C16.1642 2.66207 15.725 1.60547 14.9334 0.81642C14.1418 0.0273703 13.0609 -0.431293 11.9225 -0.461182H0V22.7602L12.5131 22.7503C13.6187 22.6786 14.6534 22.2006 15.404 21.415C16.1545 20.6295 16.5635 19.5962 16.5466 18.5285V15.0783C16.5423 14.5134 16.4212 13.955 16.1905 13.4356C15.9598 12.9162 15.624 12.4464 15.2028 12.0534C14.7816 11.6605 14.2835 11.3523 13.7374 11.147C13.1913 10.9416 12.6082 10.8431 12.0222 10.8572ZM10.8312 9.1316H5.31484V3.75983H10.8312V9.1316ZM11.2311 18.5384H5.31484V12.7769H11.2311V18.5384Z" fill="#004996"/>
<path d="M123.187 10.8184C124.309 10.7678 125.367 10.2996 126.138 9.5122C126.91 8.72488 127.334 7.67989 127.322 6.59723V3.72127C127.329 2.62372 126.89 1.56708 126.098 0.77795C125.307 -0.0111799 124.226 -0.469959 123.087 -0.5H111.164V22.7212H116.48V12.7378H122.396V22.7212H127.711V15.0394C127.707 14.4745 127.586 13.9161 127.355 13.3968C127.124 12.8775 126.788 12.4077 126.367 12.0147C125.946 11.6218 125.448 11.3137 124.902 11.1083C124.356 10.9029 123.773 10.8043 123.187 10.8184ZM121.996 9.0925H116.48V3.72153H121.996V9.0925Z" fill="#004996"/>
<path d="M86.8741 22.7267C85.7198 22.7172 84.6162 22.2681 83.8041 21.4775C82.992 20.6868 82.5372 19.6188 82.5391 18.5062V-0.493652H88.256V18.5062H93.9614V22.7267H86.8741Z" fill="#004996"/>
<path d="M55.9588 22.721V3.33086H51.0342V-0.5H66.5994V3.33086H61.6748V22.721H55.9588Z" fill="#004996"/>
<path d="M33.5195 3.73862C33.5174 2.62601 33.972 1.55774 34.784 0.76688C35.596 -0.0239772 36.6996 -0.473247 37.8541 -0.48291H45.7422C46.8966 -0.473225 48.0002 -0.0239452 48.8122 0.76691C49.6242 1.55777 50.0788 2.62602 50.0767 3.73862V22.7378H44.7513V3.34863H38.8452V22.7379H33.5195V3.73862Z" fill="#004996"/>
<path d="M22.689 22.7197C21.5348 22.7101 20.4313 22.2609 19.6193 21.4703C18.8073 20.6796 18.3526 19.6116 18.3545 18.4992V3.72973C18.3525 2.61718 18.8071 1.54901 19.6191 0.75822C20.4311 -0.0325691 21.5346 -0.481792 22.689 -0.491455H31.9486V3.72973H23.6693V9.1014H30.9576V12.7478H23.6693V18.509H31.9486V22.7295L22.689 22.7197Z" fill="#004996"/>
<path d="M71.9312 22.7197C70.7769 22.7101 69.6735 22.2609 68.8615 21.4703C68.0495 20.6796 67.5948 19.6116 67.5967 18.4992V3.72973C67.5947 2.61718 68.0492 1.54901 68.8613 0.75822C69.6733 -0.0325691 70.7768 -0.481792 71.9312 -0.491455H81.1907V3.72973H72.9121V9.1014H80.2004V12.7478H72.9122V18.509H81.1908V22.7295L71.9312 22.7197Z" fill="#004996"/>
<path d="M100.112 22.7197C98.9573 22.7103 97.8536 22.2612 97.0414 21.4705C96.2293 20.6799 95.7745 19.6117 95.7764 18.4992V3.72973C95.7743 2.61705 96.229 1.54876 97.0412 0.75795C97.8534 -0.0328591 98.9572 -0.481993 100.112 -0.491455H109.371V3.72973H101.092V9.1014H108.379V12.7478H101.092V18.509H109.371V22.7295L100.112 22.7197Z" fill="#004996"/>
</g>
</g>
<defs>
<clipPath id="clip0_1720_2">
<rect width="159" height="23" fill="white"/>
</clipPath>
<clipPath id="clip1_1720_2">
<rect width="159" height="23" fill="white"/>
</clipPath>
</defs>
</svg>
