<svg width="107" height="107" viewBox="0 0 107 107" fill="none" xmlns="http://www.w3.org/2000/svg">
<path d="M31.5645 11C42.9219 11 52.1289 20.207 52.1289 31.5645V47.7227C52.1288 50.1562 50.1562 52.1287 47.7227 52.1289H32.9355V32.9355H30.1934V52.1289H15.4062C12.9728 52.1287 11.0001 50.1561 11 47.7227V31.5645C11 20.207 20.207 11 31.5645 11Z" fill="white"/>
<path d="M75.4355 96C64.0781 96 54.8711 86.793 54.8711 75.4355V59.2773C54.8712 56.8438 56.8438 54.8713 59.2773 54.8711H74.0645V74.0645H76.8066V54.8711L91.5938 54.8711C94.0272 54.8713 95.9999 56.8439 96 59.2773V75.4355C96 86.793 86.793 96 75.4355 96Z" fill="white"/>
<path d="M54.8711 31.5659C54.8711 20.2085 64.0781 11.0015 75.4355 11.0015C86.3319 11.0015 95.2471 19.4761 95.9531 30.1938H76.8066V32.9351H95.9531C95.2484 43.6541 86.3329 52.1304 75.4355 52.1304C64.0781 52.1303 54.8711 42.9233 54.8711 31.5659Z" fill="white"/>
<path d="M11 75.4365C11 70.2511 12.9192 65.5139 16.0859 61.8965L26.7773 72.5869L28.7168 70.6484L18.0254 59.958C21.6429 56.791 26.3797 54.8711 31.5654 54.8711C36.5341 54.8711 41.0909 56.6337 44.6455 59.5674L33.5625 70.6504L35.501 72.5889L46.6396 61.4512C50.0451 65.1206 52.1288 70.0337 52.1289 75.4346C52.1289 80.6203 50.2093 85.3581 47.042 88.9756L35.2031 77.1357L33.2637 79.0742L45.1025 90.9141C41.4854 94.0804 36.7492 95.9999 31.5645 96C26.1634 96 21.2486 93.9172 17.5791 90.5117L29.0146 79.0771L27.0762 77.1377L15.6963 88.5176C12.7624 84.9629 11 80.4055 11 75.4365Z" fill="white"/>
</svg>
