<svg width="250" height="103" viewBox="0 0 250 103" fill="none" xmlns="http://www.w3.org/2000/svg">
<path d="M25 52.041C25.0003 39.868 34.869 30 47.042 30C59.215 30.0003 69.083 39.869 69.083 52.042V72.6602H61.083V52.042C61.083 44.2872 54.7967 38.0003 47.042 38C39.2872 38 33.0003 44.2863 33 52.041V72.6602H25V52.041Z" fill="#F8672F"/>
<path d="M181 52.042V31.4229H189V52.042C189 59.7968 195.287 66.083 203.042 66.083C210.797 66.0827 217.083 59.7966 217.083 52.042V31.4229H225.083V52.042C225.083 64.2149 215.215 74.0827 203.042 74.083C190.869 74.083 181 64.2151 181 52.042Z" fill="#EDC337"/>
<path d="M100.095 34.4424C107.273 34.6321 113.382 39.1182 115.945 45.4229H113.762C111.321 40.228 106.105 36.5957 100.022 36.4414L99.6191 36.4365C90.9932 36.4366 84.0002 43.4298 84 52.0557L84.0049 52.459C84.2156 60.7647 90.9105 67.4584 99.2158 67.6689L99.6191 67.6738C104.734 67.6737 109.266 65.212 112.111 61.4229H114.54C111.423 66.3774 105.91 69.6687 99.6309 69.6729L99.1436 69.668C89.7914 69.421 82.2526 61.8827 82.0059 52.5303L82 52.0225C82.018 42.3137 89.8892 34.4471 99.5996 34.4365L100.095 34.4424Z" fill="#00A365" stroke="#00A365" stroke-width="6"/>
<path d="M151.129 53.979C160.563 54.2299 168.255 61.4776 169.208 70.7212H165.045C164.097 63.601 158 58.1079 150.621 58.1079C143.242 58.1083 137.147 63.6013 136.199 70.7212H132.036C133.004 61.3305 140.927 54.0016 150.567 53.9741L150.598 53.9751H150.619C150.63 53.9751 150.641 53.9741 150.652 53.9741L151.129 53.979ZM136.195 33.3618C137.127 40.3613 143.033 45.7883 150.243 45.9712L150.619 45.9751C157.999 45.9749 164.095 40.4824 165.042 33.3618H169.205C168.239 42.74 160.336 50.0605 150.713 50.1079H150.55L150.135 50.104H150.136C140.69 49.8647 132.986 42.6136 132.033 33.3618H136.195Z" fill="#D999F7" stroke="#D999F7" stroke-width="3.86604"/>
</svg>
