<svg width="93" height="15" viewBox="0 0 93 15" fill="none" xmlns="http://www.w3.org/2000/svg">
<path d="M8.20044 3.41842V11.5733C8.2524 13.4859 9.81108 14.9912 11.6815 14.938C13.4826 14.8849 14.9288 13.4062 14.9721 11.5733V3.41842C14.9721 1.53243 13.474 0.000608917 11.6295 0.000608917H11.6209C9.76778 -0.0348088 8.23508 1.4793 8.20044 3.37415V3.41842ZM10.6251 11.5733V3.41842C10.6164 2.90486 11.0234 2.47099 11.5256 2.47099C11.5603 2.47099 11.5862 2.47099 11.6209 2.47099C12.1145 2.46214 12.5301 2.86059 12.5388 3.37415C12.5388 3.39186 12.5388 3.40956 12.5388 3.41842V11.5733C12.5301 12.0958 12.1231 12.5119 11.6122 12.5208C11.084 12.5473 10.6337 12.1223 10.6077 11.5822" fill="black"/>
<path d="M34.5163 0.141846H27.6667V2.62109H29.8835V14.7782H32.3082V2.62109H34.5163V0.141846Z" fill="black"/>
<path d="M41.6514 0.141846V11.5729C41.6687 12.1042 41.2618 12.538 40.7422 12.5558C40.2226 12.5735 39.7983 12.1573 39.781 11.626C39.781 11.6083 39.781 11.5906 39.781 11.5641V0.141846H37.2871V11.5729C37.3737 13.5032 38.9757 14.9996 40.8634 14.911C42.6299 14.8313 44.0501 13.3792 44.128 11.5729V0.141846H41.6514Z" fill="black"/>
<path d="M63.8282 2.62109V0.141846H57.8359V14.7782H63.8282V12.3078H60.2606V8.51814H62.538V6.0389H60.2606V2.62109H63.8282Z" fill="black"/>
<path d="M25.3893 14.7784H22.8262L21.0423 7.86306C21.0423 7.86306 22.6097 7.57087 22.6097 5.89738V3.6395C22.627 3.09053 22.194 2.6301 21.6572 2.62124H20.6873V14.7784H18.2627V0.142002H21.6225C23.4583 0.124293 24.9737 1.61184 25.043 3.48898V5.81769C25.043 7.26982 24.5407 8.28808 23.6921 9.02299L25.3893 14.7784Z" fill="black"/>
<path d="M52.415 0.141846V8.1551L49.9211 0.141846H47.4272V14.7782H49.9211V7.64155L52.1985 14.7782H54.9089V0.141846H52.415Z" fill="black"/>
<path d="M2.56317 0.363525H0.216484H0V14.9999H2.56317V8.73096H4.91851V6.26058H2.56317V2.84277H6.27803V0.363525H2.56317Z" fill="black"/>
<path d="M90.2681 11.765C90.2618 12.052 90.0473 12.2776 89.7824 12.2741H88.3284C88.0635 12.2776 87.849 12.052 87.8427 11.765V3.22207C87.8553 2.93503 88.0729 2.70949 88.3379 2.71291H89.795C90.0536 2.70949 90.2649 2.93161 90.2681 3.21182C90.2681 3.21523 90.2681 3.21865 90.2681 3.22207V11.765ZM90.1325 0.19104H87.9941C86.6126 0.19104 85.493 1.36313 85.493 2.81201V12.0862C85.493 13.5317 86.6126 14.7072 87.9972 14.7072H90.1356C91.5171 14.7072 92.6399 13.5351 92.6399 12.0862V2.81201C92.6367 1.36313 91.5139 0.19104 90.1325 0.19104ZM82.2318 11.765C82.2255 12.052 82.0079 12.2776 81.7461 12.2741H80.2952C80.0303 12.2776 79.8158 12.052 79.8095 11.765V3.22207C79.8222 2.93503 80.0429 2.70608 80.3079 2.71291H81.7587C82.0173 2.70949 82.2286 2.93503 82.2318 3.21523V3.22207V11.765ZM82.093 0.19104H79.9546C78.5732 0.19104 77.4567 1.36313 77.4567 2.81201V12.0862C77.4567 13.5317 78.5795 14.7072 79.9609 14.7072H82.0993C83.4808 14.7072 84.6036 13.5351 84.6036 12.0862V2.81201C84.6036 1.36655 83.4839 0.19104 82.0993 0.19104H82.093ZM76.5609 8.06419C76.5609 6.61532 75.4192 5.44664 74.0094 5.44664H71.8521V2.70608H76.5452V0.19104H69.4141V8.07103H73.6498C73.9179 8.06078 74.1419 8.28973 74.1513 8.58019V11.765C74.1419 12.052 73.9211 12.281 73.653 12.2741H72.3473C72.0823 12.281 71.8584 12.052 71.8521 11.765V9.76594H69.4551V12.0828C69.4551 13.5282 70.6 14.7038 72.0066 14.7038H74.0125C75.4192 14.7038 76.5641 13.5317 76.5641 12.0828L76.5609 8.06419Z" fill="black"/>
</svg>
