<svg width="313" height="97" viewBox="18 18 313 97" fill="none" xmlns="http://www.w3.org/2000/svg">
<path d="M133 87.2374V66.6185C133 56.6544 141.077 48.577 151.042 48.577C161.006 48.577 169.083 56.6545 169.083 66.6185V87.2374" stroke="white" stroke-width="8"/>
<path d="M325.083 46L325.083 66.6189C325.083 76.583 317.006 84.6604 307.042 84.6604C297.077 84.6604 289 76.5829 289 66.6189L289 46" stroke="white" stroke-width="8"/>
<mask id="path-3-inside-1_30_119" fill="white">
<path d="M204.151 46.0206C215.293 46.303 224.237 55.4236 224.237 66.6329L224.231 67.1651C224.216 67.784 224.171 68.3959 224.102 69.0001H216.015C216.16 68.2333 216.237 67.442 216.237 66.6329C216.237 59.6639 210.588 54.0139 203.619 54.0138C196.65 54.0138 191 59.6638 191 66.6329C191 73.602 196.65 79.251 203.619 79.2511C208.265 79.251 212.322 76.7387 214.512 73.0001H223.234C220.551 81.2709 212.784 87.2509 203.619 87.2511L203.087 87.2452C192.122 86.9675 183.285 78.1297 183.007 67.1651L183 66.6329C183 55.2456 192.232 46.0138 203.619 46.0138L204.151 46.0206Z"/>
</mask>
<path d="M204.151 46.0206C215.293 46.303 224.237 55.4236 224.237 66.6329L224.231 67.1651C224.216 67.784 224.171 68.3959 224.102 69.0001H216.015C216.16 68.2333 216.237 67.442 216.237 66.6329C216.237 59.6639 210.588 54.0139 203.619 54.0138C196.65 54.0138 191 59.6638 191 66.6329C191 73.602 196.65 79.251 203.619 79.2511C208.265 79.251 212.322 76.7387 214.512 73.0001H223.234C220.551 81.2709 212.784 87.2509 203.619 87.2511L203.087 87.2452C192.122 86.9675 183.285 78.1297 183.007 67.1651L183 66.6329C183 55.2456 192.232 46.0138 203.619 46.0138L204.151 46.0206Z" fill="white"/>
<path d="M204.151 46.0206L204.249 42.1558L204.225 42.1552L204.201 42.1549L204.151 46.0206ZM224.237 66.6329L228.103 66.6755L228.103 66.6542L228.103 66.6329L224.237 66.6329ZM224.231 67.1651L228.096 67.2631L228.097 67.2354L228.097 67.2077L224.231 67.1651ZM224.102 69.0001V72.8661H227.551L227.943 69.4392L224.102 69.0001ZM216.015 69.0001L212.216 68.2792L211.346 72.8661H216.015V69.0001ZM216.237 66.6329L220.103 66.633L220.103 66.6328L216.237 66.6329ZM203.619 54.0138L203.619 50.1477H203.619L203.619 54.0138ZM191 66.6329L187.134 66.6328V66.633L191 66.6329ZM203.619 79.2511L203.619 83.1171L203.619 83.1171L203.619 79.2511ZM214.512 73.0001V69.1341H212.296L211.176 71.046L214.512 73.0001ZM223.234 73.0001L226.912 74.1931L228.553 69.1341H223.234V73.0001ZM203.619 87.2511L203.577 91.1169L203.598 91.1171L203.619 91.1171L203.619 87.2511ZM203.087 87.2452L202.989 91.11L203.017 91.1107L203.044 91.111L203.087 87.2452ZM183.007 67.1651L179.141 67.2148L179.141 67.2389L179.142 67.2631L183.007 67.1651ZM183 66.6329L179.134 66.6329L179.134 66.6577L179.134 66.6826L183 66.6329ZM203.619 46.0138L203.669 42.148L203.644 42.1477H203.619L203.619 46.0138ZM204.151 46.0206L204.053 49.8854C213.104 50.1148 220.371 57.5257 220.371 66.6329L224.237 66.6329L228.103 66.6329C228.103 53.3214 217.482 42.4913 204.249 42.1558L204.151 46.0206ZM224.237 66.6329L220.372 66.5903L220.366 67.1226L224.231 67.1651L228.097 67.2077L228.103 66.6755L224.237 66.6329ZM224.231 67.1651L220.367 67.0672C220.354 67.5629 220.318 68.0606 220.261 68.561L224.102 69.0001L227.943 69.4392C228.024 68.7312 228.077 68.0051 228.096 67.2631L224.231 67.1651ZM224.102 69.0001V65.1341H216.015V69.0001V72.8661H224.102V69.0001ZM216.015 69.0001L219.813 69.721C220.003 68.7208 220.103 67.6882 220.103 66.633L216.237 66.6329L212.371 66.6328C212.371 67.1958 212.318 67.7458 212.216 68.2792L216.015 69.0001ZM216.237 66.6329L220.103 66.6328C220.103 57.5291 212.724 50.1479 203.619 50.1477L203.619 54.0138L203.619 57.8798C208.453 57.8799 212.371 61.7987 212.371 66.633L216.237 66.6329ZM203.619 54.0138L203.619 50.1477C194.515 50.1478 187.134 57.5287 187.134 66.6328L191 66.6329L194.866 66.633C194.866 61.799 198.785 57.8798 203.619 57.8798L203.619 54.0138ZM191 66.6329L187.134 66.633C187.134 75.7375 194.515 83.117 203.619 83.1171L203.619 79.2511L203.619 75.385C198.785 75.385 194.866 71.4664 194.866 66.6328L191 66.6329ZM203.619 79.2511L203.619 83.1171C209.695 83.117 214.993 79.8266 217.848 74.9542L214.512 73.0001L211.176 71.046C209.65 73.6508 206.835 75.385 203.619 75.385L203.619 79.2511ZM214.512 73.0001V76.8661H223.234V73.0001V69.1341H214.512V73.0001ZM223.234 73.0001L219.557 71.8071C217.376 78.5315 211.059 83.3849 203.619 83.385L203.619 87.2511L203.619 91.1171C214.509 91.117 223.727 84.0103 226.912 74.1931L223.234 73.0001ZM203.619 87.2511L203.662 83.3853L203.129 83.3794L203.087 87.2452L203.044 91.111L203.577 91.1169L203.619 87.2511ZM203.087 87.2452L203.185 83.3804C194.279 83.1548 187.097 75.9735 186.872 67.0672L183.007 67.1651L179.142 67.2631C179.472 80.286 189.966 90.7802 202.989 91.11L203.087 87.2452ZM183.007 67.1651L186.873 67.1155L186.866 66.5833L183 66.6329L179.134 66.6826L179.141 67.2148L183.007 67.1651ZM183 66.6329L186.866 66.6329C186.866 57.3807 194.367 49.8798 203.619 49.8798L203.619 46.0138L203.619 42.1477C190.097 42.1478 179.134 53.1104 179.134 66.6329L183 66.6329ZM203.619 46.0138L203.569 49.8795L204.102 49.8863L204.151 46.0206L204.201 42.1549L203.669 42.148L203.619 46.0138Z" fill="white" mask="url(#path-3-inside-1_30_119)"/>
<mask id="path-5-inside-2_30_119" fill="white">
<path d="M199 62.9999L222 62.9999L224 68.9999H199V62.9999Z"/>
</mask>
<path d="M199 62.9999L222 62.9999L224 68.9999H199V62.9999Z" fill="white"/>
<path d="M199 62.9999V56.9999H193V62.9999H199ZM222 62.9999L227.692 61.1025L226.325 56.9999L222 56.9999V62.9999ZM224 68.9999V74.9999H232.325L229.692 67.1025L224 68.9999ZM199 68.9999H193V74.9999H199V68.9999ZM199 62.9999V68.9999H222V62.9999V56.9999H199V62.9999ZM222 62.9999L216.308 64.8973L218.308 70.8973L224 68.9999L229.692 67.1025L227.692 61.1025L222 62.9999ZM224 68.9999V62.9999L199 62.9999V68.9999V74.9999H224V68.9999ZM199 68.9999H205V62.9999H199H193V68.9999H199Z" fill="white" mask="url(#path-5-inside-2_30_119)"/>
<mask id="path-7-inside-3_30_119" fill="white">
<path d="M275.231 46.5338C274.949 57.6751 265.828 66.6196 254.619 66.6197L254.087 66.6139C243.122 66.3362 234.285 57.4984 234.007 46.5338L234 46.0064H242C242.003 52.9733 247.652 58.6197 254.619 58.6197C261.587 58.6196 267.235 52.9732 267.237 46.0064H275.237L275.231 46.5338Z"/>
</mask>
<path d="M275.231 46.5338C274.949 57.6751 265.828 66.6196 254.619 66.6197L254.087 66.6139C243.122 66.3362 234.285 57.4984 234.007 46.5338L234 46.0064H242C242.003 52.9733 247.652 58.6197 254.619 58.6197C261.587 58.6196 267.235 52.9732 267.237 46.0064H275.237L275.231 46.5338Z" fill="white"/>
<path d="M275.231 46.5338L279.096 46.6318L279.097 46.6042L279.097 46.5767L275.231 46.5338ZM254.619 66.6197L254.577 70.4855L254.598 70.4858H254.619L254.619 66.6197ZM254.087 66.6139L253.989 70.4787L254.017 70.4794L254.044 70.4797L254.087 66.6139ZM234.007 46.5338L230.141 46.5839L230.141 46.6078L230.142 46.6318L234.007 46.5338ZM234 46.0064V42.1404H230.084L230.134 46.0566L234 46.0064ZM242 46.0064L245.866 46.0049L245.865 42.1404H242V46.0064ZM254.619 58.6197L254.619 62.4858H254.619L254.619 58.6197ZM267.237 46.0064V42.1404H263.373L263.371 46.0049L267.237 46.0064ZM275.237 46.0064L279.103 46.0494L279.147 42.1404H275.237V46.0064ZM275.231 46.5338L271.367 46.4358C271.137 55.4859 263.726 62.7536 254.619 62.7537L254.619 66.6197L254.619 70.4858C267.931 70.4856 278.761 59.8642 279.096 46.6318L275.231 46.5338ZM254.619 66.6197L254.662 62.7539L254.129 62.7481L254.087 66.6139L254.044 70.4797L254.577 70.4855L254.619 66.6197ZM254.087 66.6139L254.185 62.7491C245.279 62.5235 238.097 55.3422 237.872 46.4358L234.007 46.5338L230.142 46.6318C230.472 59.6546 240.966 70.1489 253.989 70.4787L254.087 66.6139ZM234.007 46.5338L237.873 46.4837L237.866 45.9563L234 46.0064L230.134 46.0566L230.141 46.5839L234.007 46.5338ZM234 46.0064V49.8725H242V46.0064V42.1404H234V46.0064ZM242 46.0064L238.134 46.008C238.138 55.1096 245.517 62.4857 254.619 62.4858L254.619 58.6197L254.619 54.7537C249.786 54.7537 245.868 50.837 245.866 46.0049L242 46.0064ZM254.619 58.6197L254.619 62.4858C263.721 62.4856 271.1 55.1092 271.103 46.008L267.237 46.0064L263.371 46.0049C263.369 50.8372 259.452 54.7536 254.619 54.7537L254.619 58.6197ZM267.237 46.0064V49.8725H275.237V46.0064V42.1404H267.237V46.0064ZM275.237 46.0064L271.372 45.9635L271.366 46.4908L275.231 46.5338L279.097 46.5767L279.103 46.0494L275.237 46.0064Z" fill="white" mask="url(#path-7-inside-3_30_119)"/>
<mask id="path-9-inside-4_30_119" fill="white">
<path d="M234.009 86.7043C234.292 75.5632 243.412 66.6186 254.622 66.6184L255.154 66.6243C266.118 66.902 274.956 75.7399 275.234 86.7043L275.241 87.2317L267.241 87.2317C267.238 80.265 261.589 74.6184 254.622 74.6184C247.654 74.6186 242.006 80.2651 242.003 87.2317L234.003 87.2317L234.009 86.7043Z"/>
</mask>
<path d="M234.009 86.7043C234.292 75.5632 243.412 66.6186 254.622 66.6184L255.154 66.6243C266.118 66.902 274.956 75.7399 275.234 86.7043L275.241 87.2317L267.241 87.2317C267.238 80.265 261.589 74.6184 254.622 74.6184C247.654 74.6186 242.006 80.2651 242.003 87.2317L234.003 87.2317L234.009 86.7043Z" fill="white"/>
<path d="M234.009 86.7043L230.144 86.6063L230.144 86.6338L230.143 86.6614L234.009 86.7043ZM254.622 66.6184L254.664 62.7526L254.643 62.7524L254.622 62.7524L254.622 66.6184ZM255.154 66.6243L255.252 62.7595L255.224 62.7588L255.196 62.7585L255.154 66.6243ZM275.234 86.7043L279.1 86.6542L279.099 86.6303L279.099 86.6063L275.234 86.7043ZM275.241 87.2317L275.241 91.0977L279.157 91.0977L279.106 87.1816L275.241 87.2317ZM267.241 87.2317L263.375 87.2333L263.376 91.0977L267.241 91.0977L267.241 87.2317ZM254.622 74.6184L254.622 70.7524L254.622 70.7524L254.622 74.6184ZM242.003 87.2317L242.003 91.0977L245.868 91.0977L245.869 87.2333L242.003 87.2317ZM234.003 87.2317L230.138 87.1887L230.094 91.0977L234.003 91.0977L234.003 87.2317ZM234.009 86.7043L237.874 86.8024C238.104 77.7523 245.515 70.4846 254.622 70.4844L254.622 66.6184L254.622 62.7524C241.31 62.7525 230.48 73.3741 230.144 86.6063L234.009 86.7043ZM254.622 66.6184L254.579 70.4842L255.111 70.4901L255.154 66.6243L255.196 62.7585L254.664 62.7526L254.622 66.6184ZM255.154 66.6243L255.056 70.4891C263.962 70.7146 271.143 77.8961 271.369 86.8024L275.234 86.7043L279.099 86.6063C278.768 73.5837 268.275 63.0893 255.252 62.7595L255.154 66.6243ZM275.234 86.7043L271.368 86.7545L271.375 87.2818L275.241 87.2317L279.106 87.1816L279.1 86.6542L275.234 86.7043ZM275.241 87.2317L275.241 83.3657L267.241 83.3657L267.241 87.2317L267.241 91.0977L275.241 91.0977L275.241 87.2317ZM267.241 87.2317L271.107 87.23C271.103 78.1288 263.723 70.7524 254.622 70.7524L254.622 74.6184L254.622 78.4844C259.454 78.4845 263.373 82.4013 263.375 87.2333L267.241 87.2317ZM254.622 74.6184L254.622 70.7524C245.52 70.7526 238.141 78.1292 238.137 87.23L242.003 87.2317L245.869 87.2333C245.872 82.401 249.789 78.4845 254.622 78.4844L254.622 74.6184ZM242.003 87.2317L242.003 83.3656L234.003 83.3656L234.003 87.2317L234.003 91.0977L242.003 91.0977L242.003 87.2317ZM234.003 87.2317L237.869 87.2746L237.875 86.7473L234.009 86.7043L230.143 86.6614L230.138 87.1887L234.003 87.2317Z" fill="white" mask="url(#path-9-inside-4_30_119)"/>
<path d="M44.5645 24C55.9219 24 65.1289 33.207 65.1289 44.5645V60.7227C65.1288 63.1562 63.1562 65.1287 60.7227 65.1289H45.9355V45.9355H43.1934V65.1289H28.4062C25.9728 65.1287 24.0001 63.1561 24 60.7227V44.5645C24 33.207 33.207 24 44.5645 24Z" fill="#FAFDFE"/>
<path d="M88.4355 109C77.0781 109 67.8711 99.793 67.8711 88.4355L67.8711 72.2773C67.8712 69.8438 69.8438 67.8713 72.2773 67.8711L87.0645 67.8711L87.0645 87.0645L89.8066 87.0645L89.8066 67.8711L104.594 67.8711C107.027 67.8713 109 69.8439 109 72.2773L109 88.4355C109 99.793 99.793 109 88.4355 109Z" fill="#FAFDFE"/>
<path d="M67.8711 44.5659C67.8711 33.2085 77.0781 24.0015 88.4355 24.0015C99.3319 24.0015 108.247 32.4761 108.953 43.1938L89.8066 43.1938L89.8066 45.9351L108.953 45.9351C108.248 56.6541 99.3329 65.1304 88.4355 65.1304C77.0781 65.1303 67.8711 55.9233 67.8711 44.5659Z" fill="#FAFDFE"/>
<path d="M24 88.4365C24 83.2511 25.9192 78.5139 29.0859 74.8965L39.7773 85.5869L41.7168 83.6484L31.0254 72.958C34.6429 69.791 39.3797 67.8711 44.5654 67.8711C49.5341 67.8711 54.0909 69.6337 57.6455 72.5674L46.5625 83.6504L48.501 85.5889L59.6396 74.4512C63.0451 78.1206 65.1288 83.0337 65.1289 88.4346C65.1289 93.6203 63.2093 98.3581 60.042 101.976L48.2031 90.1357L46.2637 92.0742L58.1025 103.914C54.4854 107.08 49.7492 109 44.5645 109C39.1634 109 34.2486 106.917 30.5791 103.512L42.0146 92.0771L40.0762 90.1377L28.6963 101.518C25.7624 97.9629 24 93.4055 24 88.4365Z" fill="#FAFDFE"/>
</svg>
