<svg width="306" height="85" viewBox="0 0 306 85" fill="none" xmlns="http://www.w3.org/2000/svg">
<path d="M109 63.2373V42.6184C109 32.6543 117.077 24.5769 127.042 24.5769C137.006 24.5769 145.083 32.6544 145.083 42.6184V63.2373" stroke="#2D2D2D" stroke-width="8"/>
<path d="M301.083 22L301.083 42.6189C301.083 52.583 293.006 60.6604 283.042 60.6604C273.077 60.6604 265 52.5829 265 42.6189L265 22" stroke="#2D2D2D" stroke-width="8"/>
<path d="M180.151 22.0205C191.293 22.3029 200.237 31.4235 200.237 42.6328L200.231 43.165C200.216 43.7839 200.171 44.3958 200.102 45H192.015C192.16 44.2332 192.237 43.4419 192.237 42.6328C192.237 35.6638 186.588 30.0138 179.619 30.0137C172.65 30.0137 167 35.6637 167 42.6328C167 49.6019 172.65 55.2509 179.619 55.251C184.265 55.2509 188.322 52.7387 190.512 49H199.234C196.551 57.2708 188.784 63.2509 179.619 63.251L179.087 63.2451C168.122 62.9674 159.285 54.1296 159.007 43.165L159 42.6328C159 31.2455 168.232 22.0137 179.619 22.0137L180.151 22.0205Z" fill="#2D2D2D"/>
<path d="M175 38.9998L198 38.9998L200 44.9998L175 44.9998V38.9998Z" fill="#2D2D2D"/>
<path d="M251.231 22.5337C250.949 33.675 241.828 42.6195 230.619 42.6196L230.087 42.6138C219.122 42.3361 210.285 33.4983 210.007 22.5337L210 22.0063H218C218.003 28.9732 223.652 34.6196 230.619 34.6196C237.587 34.6195 243.235 28.9731 243.237 22.0063H251.237L251.231 22.5337Z" fill="#2D2D2D"/>
<path d="M210.009 62.7043C210.292 51.5632 219.412 42.6186 230.622 42.6184L231.154 42.6243C242.118 42.902 250.956 51.7399 251.234 62.7043L251.241 63.2317L243.241 63.2317C243.238 56.265 237.589 50.6184 230.622 50.6184C223.654 50.6186 218.006 56.2651 218.003 63.2317L210.003 63.2317L210.009 62.7043Z" fill="#2D2D2D"/>
<path d="M20.5645 0C31.9219 0 41.1289 9.20701 41.1289 20.5645V36.7227C41.1288 39.1562 39.1562 41.1287 36.7227 41.1289H21.9355V21.9355H19.1934V41.1289H4.40625C1.97279 41.1287 0.000137533 39.1561 0 36.7227V20.5645C3.87218e-05 9.20704 9.20704 3.19571e-05 20.5645 0Z" fill="#2D2D2D"/>
<path d="M64.4355 85C53.0781 85 43.8711 75.793 43.8711 64.4355L43.8711 48.2773C43.8712 45.8438 45.8438 43.8713 48.2773 43.8711L63.0645 43.8711L63.0645 63.0645L65.8066 63.0645L65.8066 43.8711L80.5938 43.8711C83.0272 43.8713 84.9999 45.8439 85 48.2773L85 64.4355C85 75.793 75.793 85 64.4355 85Z" fill="#2D2D2D"/>
<path d="M43.8711 20.5659C43.8711 9.20847 53.0781 0.00149496 64.4355 0.00146394C75.3319 0.00146347 84.2471 8.47613 84.9531 19.1938L65.8066 19.1938L65.8066 21.9351L84.9531 21.9351C84.2484 32.6541 75.3329 41.1304 64.4355 41.1304C53.0781 41.1303 43.8711 31.9233 43.8711 20.5659Z" fill="#2D2D2D"/>
<path d="M-8.98858e-07 64.4365C-1.12552e-06 59.2511 1.91919 54.5139 5.08594 50.8965L15.7773 61.5869L17.7168 59.6484L7.02539 48.958C10.6429 45.791 15.3797 43.8711 20.5654 43.8711C25.5341 43.8711 30.0909 45.6337 33.6455 48.5674L22.5625 59.6504L24.501 61.5889L35.6396 50.4512C39.0451 54.1206 41.1288 59.0337 41.1289 64.4346C41.1289 69.6203 39.2093 74.3581 36.042 77.9756L24.2031 66.1357L22.2637 68.0742L34.1025 79.9141C30.4854 83.0804 25.7492 84.9999 20.5645 85C15.1634 85 10.2486 82.9172 6.5791 79.5117L18.0146 68.0771L16.0762 66.1377L4.69629 77.5176C1.76236 73.9629 1.29779e-06 69.4055 -8.98858e-07 64.4365Z" fill="#2D2D2D"/>
</svg>
