<svg width="204" height="55" viewBox="18 91 204 55" fill="none" xmlns="http://www.w3.org/2000/svg">
<path d="M24 139.737V119.118C24 109.154 32.0775 101.077 42.0415 101.077C52.0056 101.077 60.083 109.154 60.083 119.118V139.737" stroke="white" stroke-width="8"/>
<path d="M216.083 98.5L216.083 119.119C216.083 129.083 208.006 137.16 198.042 137.16C188.077 137.16 180 129.083 180 119.119L180 98.5" stroke="white" stroke-width="8"/>
<path d="M95.1514 98.5205C106.293 98.8029 115.237 107.923 115.237 119.133L115.231 119.665C115.216 120.284 115.171 120.896 115.102 121.5H107.015C107.16 120.733 107.237 119.942 107.237 119.133C107.237 112.164 101.588 106.514 94.6191 106.514C87.6501 106.514 82.0001 112.164 82 119.133C82.0001 126.102 87.6501 131.751 94.6191 131.751C99.2651 131.751 103.322 129.239 105.512 125.5H114.234C111.551 133.771 103.784 139.751 94.6191 139.751L94.0869 139.745C83.1223 139.467 74.2848 130.63 74.0068 119.665L74 119.133C74.0001 107.745 83.2318 98.5137 94.6191 98.5137L95.1514 98.5205Z" fill="white"/>
<path d="M90 115.5H113L115 121.5H90V115.5Z" fill="white"/>
<path d="M166.231 99.0337C165.949 110.175 156.828 119.119 145.619 119.12L145.087 119.114C134.122 118.836 125.285 109.998 125.007 99.0337L125 98.5063H133C133.003 105.473 138.652 111.12 145.619 111.12C152.587 111.119 158.235 105.473 158.237 98.5063H166.237L166.231 99.0337Z" fill="white"/>
<path d="M125.009 139.204C125.292 128.063 134.412 119.119 145.622 119.118L146.154 119.124C157.118 119.402 165.956 128.24 166.234 139.204L166.241 139.732L158.241 139.732C158.238 132.765 152.589 127.118 145.622 127.118C138.654 127.119 133.006 132.765 133.003 139.732L125.003 139.732L125.009 139.204Z" fill="white"/>
</svg>
