<svg width="204" height="55" viewBox="18 91 204 55" fill="none" xmlns="http://www.w3.org/2000/svg">
<path d="M24 139.737V119.118C24 109.154 32.0775 101.077 42.0415 101.077C52.0056 101.077 60.083 109.154 60.083 119.118V139.737" stroke="#2D2D2D" stroke-width="8"/>
<path d="M216.083 98.5L216.083 119.119C216.083 129.083 208.006 137.16 198.042 137.16C188.077 137.16 180 129.083 180 119.119L180 98.5" stroke="#2D2D2D" stroke-width="8"/>
<mask id="path-3-inside-1_213_189" fill="white">
<path d="M95.1514 98.5205C106.293 98.8029 115.237 107.923 115.237 119.133L115.231 119.665C115.216 120.284 115.171 120.896 115.102 121.5H107.015C107.16 120.733 107.237 119.942 107.237 119.133C107.237 112.164 101.588 106.514 94.6191 106.514C87.6501 106.514 82.0001 112.164 82 119.133C82.0001 126.102 87.6501 131.751 94.6191 131.751C99.2651 131.751 103.322 129.239 105.512 125.5H114.234C111.551 133.771 103.784 139.751 94.6191 139.751L94.0869 139.745C83.1223 139.467 74.2848 130.63 74.0068 119.665L74 119.133C74.0001 107.745 83.2318 98.5137 94.6191 98.5137L95.1514 98.5205Z"/>
</mask>
<path d="M95.1514 98.5205C106.293 98.8029 115.237 107.923 115.237 119.133L115.231 119.665C115.216 120.284 115.171 120.896 115.102 121.5H107.015C107.16 120.733 107.237 119.942 107.237 119.133C107.237 112.164 101.588 106.514 94.6191 106.514C87.6501 106.514 82.0001 112.164 82 119.133C82.0001 126.102 87.6501 131.751 94.6191 131.751C99.2651 131.751 103.322 129.239 105.512 125.5H114.234C111.551 133.771 103.784 139.751 94.6191 139.751L94.0869 139.745C83.1223 139.467 74.2848 130.63 74.0068 119.665L74 119.133C74.0001 107.745 83.2318 98.5137 94.6191 98.5137L95.1514 98.5205Z" fill="#2D2D2D"/>
<path d="M95.1514 98.5205L95.2493 94.6557L95.2252 94.6551L95.201 94.6548L95.1514 98.5205ZM115.237 119.133L119.103 119.175L119.103 119.154L119.103 119.133L115.237 119.133ZM115.231 119.665L119.096 119.763L119.097 119.735L119.097 119.708L115.231 119.665ZM115.102 121.5V125.366H118.551L118.943 121.939L115.102 121.5ZM107.015 121.5L103.216 120.779L102.346 125.366H107.015V121.5ZM107.237 119.133L111.103 119.133L111.103 119.133L107.237 119.133ZM94.6191 106.514L94.6192 102.648H94.6191L94.6191 106.514ZM82 119.133L78.134 119.133V119.133L82 119.133ZM94.6191 131.751L94.6191 135.617L94.6192 135.617L94.6191 131.751ZM105.512 125.5V121.634H103.296L102.176 123.546L105.512 125.5ZM114.234 125.5L117.912 126.693L119.553 121.634H114.234V125.5ZM94.6191 139.751L94.5766 143.617L94.5979 143.617L94.6192 143.617L94.6191 139.751ZM94.0869 139.745L93.989 143.61L94.0167 143.611L94.0444 143.611L94.0869 139.745ZM74.0068 119.665L70.1411 119.715L70.1414 119.739L70.142 119.763L74.0068 119.665ZM74 119.133L70.134 119.133L70.134 119.158L70.1343 119.182L74 119.133ZM94.6191 98.5137L94.6688 94.648L94.644 94.6476H94.6191L94.6191 98.5137ZM95.1514 98.5205L95.0534 102.385C104.104 102.615 111.371 110.026 111.371 119.133L115.237 119.133L119.103 119.133C119.103 105.821 108.482 94.9912 95.2493 94.6557L95.1514 98.5205ZM115.237 119.133L111.372 119.09L111.366 119.622L115.231 119.665L119.097 119.708L119.103 119.175L115.237 119.133ZM115.231 119.665L111.367 119.567C111.354 120.063 111.318 120.561 111.261 121.061L115.102 121.5L118.943 121.939C119.024 121.231 119.077 120.505 119.096 119.763L115.231 119.665ZM115.102 121.5V117.634H107.015V121.5V125.366H115.102V121.5ZM107.015 121.5L110.813 122.221C111.003 121.221 111.103 120.188 111.103 119.133L107.237 119.133L103.371 119.133C103.371 119.696 103.318 120.246 103.216 120.779L107.015 121.5ZM107.237 119.133L111.103 119.133C111.103 110.029 103.724 102.648 94.6192 102.648L94.6191 106.514L94.6191 110.38C99.4526 110.38 103.371 114.299 103.371 119.133L107.237 119.133ZM94.6191 106.514L94.6191 102.648C85.5149 102.648 78.1341 110.029 78.134 119.133L82 119.133L85.866 119.133C85.8661 114.299 89.7853 110.38 94.6192 110.38L94.6191 106.514ZM82 119.133L78.134 119.133C78.1342 128.237 85.5152 135.617 94.6191 135.617L94.6191 131.751L94.6192 127.885C89.7849 127.885 85.8661 123.966 85.866 119.133L82 119.133ZM94.6191 131.751L94.6192 135.617C100.695 135.617 105.993 132.327 108.848 127.454L105.512 125.5L102.176 123.546C100.65 126.151 97.8351 127.885 94.6191 127.885L94.6191 131.751ZM105.512 125.5V129.366H114.234V125.5V121.634H105.512V125.5ZM114.234 125.5L110.557 124.307C108.376 131.031 102.059 135.885 94.6191 135.885L94.6191 139.751L94.6192 143.617C105.509 143.617 114.727 136.51 117.912 126.693L114.234 125.5ZM94.6191 139.751L94.6617 135.885L94.1295 135.879L94.0869 139.745L94.0444 143.611L94.5766 143.617L94.6191 139.751ZM94.0869 139.745L94.1848 135.88C85.2787 135.655 78.0974 128.473 77.8716 119.567L74.0068 119.665L70.142 119.763C70.4722 132.786 80.9659 143.28 93.989 143.61L94.0869 139.745ZM74.0068 119.665L77.8726 119.615L77.8657 119.083L74 119.133L70.1343 119.182L70.1411 119.715L74.0068 119.665ZM74 119.133L77.866 119.133C77.8661 109.881 85.367 102.38 94.6192 102.38L94.6191 98.5137L94.6191 94.6476C81.0966 94.6477 70.1341 105.61 70.134 119.133L74 119.133ZM94.6191 98.5137L94.5695 102.379L95.1017 102.386L95.1514 98.5205L95.201 94.6548L94.6688 94.648L94.6191 98.5137Z" fill="#2D2D2D" mask="url(#path-3-inside-1_213_189)"/>
<path d="M90 115.5H113L115 121.5H90V115.5Z" fill="#2D2D2D"/>
<mask id="path-6-inside-2_213_189" fill="white">
<path d="M166.231 99.0337C165.949 110.175 156.828 119.119 145.619 119.12L145.087 119.114C134.122 118.836 125.285 109.998 125.007 99.0337L125 98.5063H133C133.003 105.473 138.652 111.12 145.619 111.12C152.587 111.119 158.235 105.473 158.237 98.5063H166.237L166.231 99.0337Z"/>
</mask>
<path d="M166.231 99.0337C165.949 110.175 156.828 119.119 145.619 119.12L145.087 119.114C134.122 118.836 125.285 109.998 125.007 99.0337L125 98.5063H133C133.003 105.473 138.652 111.12 145.619 111.12C152.587 111.119 158.235 105.473 158.237 98.5063H166.237L166.231 99.0337Z" fill="#2D2D2D"/>
<path d="M166.231 99.0337L170.096 99.1317L170.097 99.1042L170.097 99.0766L166.231 99.0337ZM145.619 119.12L145.577 122.985L145.598 122.986H145.619L145.619 119.12ZM145.087 119.114L144.989 122.979L145.017 122.979L145.044 122.98L145.087 119.114ZM125.007 99.0337L121.141 99.0838L121.141 99.1077L121.142 99.1317L125.007 99.0337ZM125 98.5063V94.6403H121.084L121.134 98.5565L125 98.5063ZM133 98.5063L136.866 98.5048L136.865 94.6403H133V98.5063ZM145.619 111.12L145.619 114.986H145.619L145.619 111.12ZM158.237 98.5063V94.6403H154.373L154.371 98.5048L158.237 98.5063ZM166.237 98.5063L170.103 98.5493L170.147 94.6403H166.237V98.5063ZM166.231 99.0337L162.367 98.9357C162.137 107.986 154.726 115.253 145.619 115.254L145.619 119.12L145.619 122.986C158.931 122.985 169.761 112.364 170.096 99.1317L166.231 99.0337ZM145.619 119.12L145.662 115.254L145.129 115.248L145.087 119.114L145.044 122.98L145.577 122.985L145.619 119.12ZM145.087 119.114L145.185 115.249C136.279 115.023 129.097 107.842 128.872 98.9357L125.007 99.0337L121.142 99.1317C121.472 112.155 131.966 122.649 144.989 122.979L145.087 119.114ZM125.007 99.0337L128.873 98.9836L128.866 98.4562L125 98.5063L121.134 98.5565L121.141 99.0838L125.007 99.0337ZM125 98.5063V102.372H133V98.5063V94.6403H125V98.5063ZM133 98.5063L129.134 98.5079C129.138 107.61 136.517 114.986 145.619 114.986L145.619 111.12L145.619 107.254C140.786 107.254 136.868 103.337 136.866 98.5048L133 98.5063ZM145.619 111.12L145.619 114.986C154.721 114.985 162.1 107.609 162.103 98.5079L158.237 98.5063L154.371 98.5048C154.369 103.337 150.452 107.253 145.619 107.254L145.619 111.12ZM158.237 98.5063V102.372H166.237V98.5063V94.6403H158.237V98.5063ZM166.237 98.5063L162.372 98.4634L162.366 98.9907L166.231 99.0337L170.097 99.0766L170.103 98.5493L166.237 98.5063Z" fill="#2D2D2D" mask="url(#path-6-inside-2_213_189)"/>
<mask id="path-8-inside-3_213_189" fill="white">
<path d="M125.009 139.204C125.292 128.063 134.412 119.119 145.622 119.118L146.154 119.124C157.118 119.402 165.956 128.24 166.234 139.204L166.241 139.732L158.241 139.732C158.238 132.765 152.589 127.118 145.622 127.118C138.654 127.119 133.006 132.765 133.003 139.732L125.003 139.732L125.009 139.204Z"/>
</mask>
<path d="M125.009 139.204C125.292 128.063 134.412 119.119 145.622 119.118L146.154 119.124C157.118 119.402 165.956 128.24 166.234 139.204L166.241 139.732L158.241 139.732C158.238 132.765 152.589 127.118 145.622 127.118C138.654 127.119 133.006 132.765 133.003 139.732L125.003 139.732L125.009 139.204Z" fill="#2D2D2D"/>
<path d="M125.009 139.204L121.144 139.106L121.144 139.134L121.143 139.161L125.009 139.204ZM145.622 119.118L145.664 115.253L145.643 115.252L145.622 115.252L145.622 119.118ZM146.154 119.124L146.252 115.259L146.224 115.259L146.196 115.258L146.154 119.124ZM166.234 139.204L170.1 139.154L170.099 139.13L170.099 139.106L166.234 139.204ZM166.241 139.732L166.241 143.598L170.157 143.598L170.106 139.682L166.241 139.732ZM158.241 139.732L154.375 139.733L154.376 143.598L158.241 143.598L158.241 139.732ZM145.622 127.118L145.622 123.252L145.622 123.252L145.622 127.118ZM133.003 139.732L133.003 143.598L136.868 143.598L136.869 139.733L133.003 139.732ZM125.003 139.732L121.138 139.689L121.094 143.598L125.003 143.598L125.003 139.732ZM125.009 139.204L128.874 139.302C129.104 130.252 136.515 122.985 145.622 122.984L145.622 119.118L145.622 115.252C132.31 115.253 121.48 125.874 121.144 139.106L125.009 139.204ZM145.622 119.118L145.579 122.984L146.111 122.99L146.154 119.124L146.196 115.258L145.664 115.253L145.622 119.118ZM146.154 119.124L146.056 122.989C154.962 123.215 162.143 130.396 162.369 139.302L166.234 139.204L170.099 139.106C169.768 126.084 159.275 115.589 146.252 115.259L146.154 119.124ZM166.234 139.204L162.368 139.254L162.375 139.782L166.241 139.732L170.106 139.682L170.1 139.154L166.234 139.204ZM166.241 139.732L166.241 135.866L158.241 135.866L158.241 139.732L158.241 143.598L166.241 143.598L166.241 139.732ZM158.241 139.732L162.107 139.73C162.103 130.629 154.723 123.252 145.622 123.252L145.622 127.118L145.622 130.984C150.454 130.984 154.373 134.901 154.375 139.733L158.241 139.732ZM145.622 127.118L145.622 123.252C136.52 123.253 129.141 130.629 129.137 139.73L133.003 139.732L136.869 139.733C136.872 134.901 140.789 130.985 145.622 130.984L145.622 127.118ZM133.003 139.732L133.003 135.866L125.003 135.866L125.003 139.732L125.003 143.598L133.003 143.598L133.003 139.732ZM125.003 139.732L128.869 139.775L128.875 139.247L125.009 139.204L121.143 139.161L121.138 139.689L125.003 139.732Z" fill="#2D2D2D" mask="url(#path-8-inside-3_213_189)"/>
</svg>
