<svg width="89" height="89" viewBox="75 76 89 89" fill="none" xmlns="http://www.w3.org/2000/svg">
<path d="M97.5645 78C108.922 78 118.129 87.207 118.129 98.5645V114.723C118.129 117.156 116.156 119.129 113.723 119.129H98.9355V99.9355H96.1934V119.129H81.4062C78.9728 119.129 77.0001 117.156 77 114.723V98.5645C77 87.207 86.207 78 97.5645 78Z" fill="#2D2D2D"/>
<path d="M141.436 163C130.078 163 120.871 153.793 120.871 142.436L120.871 126.277C120.871 123.844 122.844 121.871 125.277 121.871L140.064 121.871L140.064 141.064L142.807 141.064L142.807 121.871L157.594 121.871C160.027 121.871 162 123.844 162 126.277L162 142.436C162 153.793 152.793 163 141.436 163Z" fill="#2D2D2D"/>
<path d="M120.871 98.5659C120.871 87.2085 130.078 78.0015 141.436 78.0015C152.332 78.0015 161.247 86.4761 161.953 97.1938L142.807 97.1938L142.807 99.9351L161.953 99.9351C161.248 110.654 152.333 119.13 141.436 119.13C130.078 119.13 120.871 109.923 120.871 98.5659Z" fill="#2D2D2D"/>
<path d="M77 142.437C77 137.251 78.9192 132.514 82.0859 128.896L92.7773 139.587L94.7168 137.648L84.0254 126.958C87.6429 123.791 92.3797 121.871 97.5654 121.871C102.534 121.871 107.091 123.634 110.646 126.567L99.5625 137.65L101.501 139.589L112.64 128.451C116.045 132.121 118.129 137.034 118.129 142.435C118.129 147.62 116.209 152.358 113.042 155.976L101.203 144.136L99.2637 146.074L111.103 157.914C107.485 161.08 102.749 163 97.5645 163C92.1634 163 87.2486 160.917 83.5791 157.512L95.0146 146.077L93.0762 144.138L81.6963 155.518C78.7624 151.963 77 147.405 77 142.437Z" fill="#2D2D2D"/>
</svg>
