<svg width="239" height="239" viewBox="0 0 239 239" fill="none" xmlns="http://www.w3.org/2000/svg">
<path d="M97.5645 64C108.922 64 118.129 73.207 118.129 84.5645V100.723C118.129 103.156 116.156 105.129 113.723 105.129H98.9355V85.9355H96.1934V105.129H81.4062C78.9728 105.129 77.0001 103.156 77 100.723V84.5645C77 73.207 86.207 64 97.5645 64Z" fill="white"/>
<path d="M141.436 149C130.078 149 120.871 139.793 120.871 128.436L120.871 112.277C120.871 109.844 122.844 107.871 125.277 107.871L140.064 107.871L140.064 127.064L142.807 127.064L142.807 107.871L157.594 107.871C160.027 107.871 162 109.844 162 112.277L162 128.436C162 139.793 152.793 149 141.436 149Z" fill="white"/>
<path d="M120.871 84.5659C120.871 73.2085 130.078 64.0015 141.436 64.0015C152.332 64.0015 161.247 72.4761 161.953 83.1938L142.807 83.1938L142.807 85.9351L161.953 85.9351C161.248 96.6541 152.333 105.13 141.436 105.13C130.078 105.13 120.871 95.9233 120.871 84.5659Z" fill="white"/>
<path d="M77 128.437C77 123.251 78.9192 118.514 82.0859 114.896L92.7773 125.587L94.7168 123.648L84.0254 112.958C87.6429 109.791 92.3797 107.871 97.5654 107.871C102.534 107.871 107.091 109.634 110.646 112.567L99.5625 123.65L101.501 125.589L112.64 114.451C116.045 118.121 118.129 123.034 118.129 128.435C118.129 133.62 116.209 138.358 113.042 141.976L101.203 130.136L99.2637 132.074L111.103 143.914C107.485 147.08 102.749 149 97.5645 149C92.1634 149 87.2486 146.917 83.5791 143.512L95.0146 132.077L93.0762 130.138L81.6963 141.518C78.7624 137.963 77 133.405 77 128.437Z" fill="white"/>
<path d="M79 169.89V161.195C79 156.993 82.4062 153.587 86.608 153.587C90.8097 153.587 94.2159 156.993 94.2159 161.195V169.89" stroke="white" stroke-width="3.37354"/>
<path d="M160 152.5L160 161.195C160 165.397 156.594 168.803 152.392 168.803C148.19 168.803 144.784 165.397 144.784 161.195L144.784 152.5" stroke="white" stroke-width="3.37354"/>
<mask id="path-7-inside-1_212_122" fill="white">
<path d="M109.227 152.518C113.821 152.751 117.474 156.55 117.474 161.201L117.463 161.649C117.453 161.834 117.435 162.017 117.415 162.198H114.006C114.067 161.875 114.1 161.542 114.1 161.201C114.1 158.263 111.718 155.88 108.78 155.88C105.841 155.88 103.459 158.263 103.459 161.201C103.459 164.14 105.841 166.522 108.78 166.522C110.739 166.522 112.449 165.462 113.373 163.886H117.048C115.917 167.373 112.644 169.896 108.78 169.896L108.332 169.884C103.886 169.658 100.322 166.094 100.096 161.649L100.085 161.201C100.085 156.4 103.978 152.506 108.78 152.506L109.227 152.518Z"/>
</mask>
<path d="M109.227 152.518C113.821 152.751 117.474 156.55 117.474 161.201L117.463 161.649C117.453 161.834 117.435 162.017 117.415 162.198H114.006C114.067 161.875 114.1 161.542 114.1 161.201C114.1 158.263 111.718 155.88 108.78 155.88C105.841 155.88 103.459 158.263 103.459 161.201C103.459 164.14 105.841 166.522 108.78 166.522C110.739 166.522 112.449 165.462 113.373 163.886H117.048C115.917 167.373 112.644 169.896 108.78 169.896L108.332 169.884C103.886 169.658 100.322 166.094 100.096 161.649L100.085 161.201C100.085 156.4 103.978 152.506 108.78 152.506L109.227 152.518Z" fill="white"/>
<path d="M109.227 152.518L109.31 150.89L109.29 150.889L109.27 150.888L109.227 152.518ZM117.474 161.201L119.104 161.244L119.105 161.223V161.201L117.474 161.201ZM117.463 161.649L119.091 161.731L119.092 161.711L119.092 161.691L117.463 161.649ZM117.415 162.198V163.829H118.869L119.034 162.384L117.415 162.198ZM114.006 162.198L112.404 161.895L112.037 163.829H114.006V162.198ZM114.1 161.201L115.731 161.202V161.201L114.1 161.201ZM108.78 155.88L108.78 154.25H108.78L108.78 155.88ZM103.459 161.201L101.828 161.201V161.202L103.459 161.201ZM108.78 166.522L108.78 168.152H108.78L108.78 166.522ZM113.373 163.886V162.256H112.438L111.966 163.062L113.373 163.886ZM117.048 163.886L118.599 164.389L119.291 162.256H117.048V163.886ZM108.78 169.896L108.737 171.525L108.759 171.526L108.78 171.526L108.78 169.896ZM108.332 169.884L108.249 171.512L108.269 171.513L108.289 171.514L108.332 169.884ZM100.096 161.649L98.4666 161.691L98.4671 161.711L98.4682 161.731L100.096 161.649ZM100.085 161.201L98.4543 161.201L98.4543 161.223L98.4549 161.244L100.085 161.201ZM108.78 152.506L108.823 150.876L108.801 150.876L108.78 150.876L108.78 152.506ZM109.227 152.518L109.145 154.146C112.876 154.335 115.844 157.422 115.844 161.201L117.474 161.201L119.105 161.201C119.104 155.677 114.766 151.166 109.31 150.89L109.227 152.518ZM117.474 161.201L115.845 161.159L115.833 161.606L117.463 161.649L119.092 161.691L119.104 161.244L117.474 161.201ZM117.463 161.649L115.834 161.566C115.827 161.703 115.814 161.849 115.795 162.013L117.415 162.198L119.034 162.384C119.057 162.185 119.079 161.964 119.091 161.731L117.463 161.649ZM117.415 162.198V160.568H114.006V162.198V163.829H117.415V162.198ZM114.006 162.198L115.607 162.502C115.687 162.084 115.73 161.649 115.731 161.202L114.1 161.201L112.47 161.201C112.47 161.435 112.447 161.667 112.404 161.895L114.006 162.198ZM114.1 161.201L115.731 161.201C115.73 157.363 112.619 154.25 108.78 154.25L108.78 155.88L108.78 157.51C110.818 157.511 112.47 159.163 112.47 161.201L114.1 161.201ZM108.78 155.88L108.78 154.25C104.941 154.25 101.829 157.362 101.828 161.201L103.459 161.201L105.089 161.201C105.089 159.163 106.742 157.51 108.78 157.51L108.78 155.88ZM103.459 161.201L101.828 161.202C101.829 165.041 104.941 168.152 108.78 168.152L108.78 166.522L108.78 164.891C106.741 164.891 105.089 163.239 105.089 161.201L103.459 161.201ZM108.78 166.522L108.78 168.152C111.342 168.152 113.576 166.765 114.779 164.71L113.373 163.886L111.966 163.062C111.323 164.16 110.136 164.891 108.78 164.891L108.78 166.522ZM113.373 163.886V165.516H117.048V163.886V162.256H113.373V163.886ZM117.048 163.886L115.498 163.383C114.578 166.219 111.916 168.265 108.78 168.265L108.78 169.896L108.78 171.526C113.372 171.526 117.256 168.528 118.599 164.389L117.048 163.886ZM108.78 169.896L108.823 168.266L108.374 168.254L108.332 169.884L108.289 171.514L108.737 171.525L108.78 169.896ZM108.332 169.884L108.414 168.256C104.804 168.073 101.908 165.176 101.725 161.566L100.096 161.649L98.4682 161.731C98.7361 167.012 102.968 171.244 108.249 171.512L108.332 169.884ZM100.096 161.649L101.726 161.606L101.714 161.159L100.085 161.201L98.4549 161.244L98.4666 161.691L100.096 161.649ZM100.085 161.201L101.715 161.201C101.715 157.3 104.878 154.136 108.78 154.136L108.78 152.506L108.78 150.876C103.078 150.876 98.4545 155.499 98.4543 161.201L100.085 161.201ZM108.78 152.506L108.737 154.136L109.185 154.148L109.227 152.518L109.27 150.888L108.823 150.876L108.78 152.506Z" fill="white" mask="url(#path-7-inside-1_212_122)"/>
<path d="M106.832 159.669H116.531L117.374 162.199H106.832V159.669Z" fill="white"/>
<mask id="path-10-inside-2_212_122" fill="white">
<path d="M138.969 152.948C138.736 157.542 134.938 161.195 130.286 161.195L129.838 161.184C125.392 160.958 121.828 157.394 121.603 152.948L121.591 152.503H124.965C124.966 155.441 127.348 157.821 130.286 157.821C133.224 157.821 135.605 155.441 135.607 152.503H138.981L138.969 152.948Z"/>
</mask>
<path d="M138.969 152.948C138.736 157.542 134.938 161.195 130.286 161.195L129.838 161.184C125.392 160.958 121.828 157.394 121.603 152.948L121.591 152.503H124.965C124.966 155.441 127.348 157.821 130.286 157.821C133.224 157.821 135.605 155.441 135.607 152.503H138.981L138.969 152.948Z" fill="white"/>
<path d="M138.969 152.948L140.597 153.031L140.598 153.011L140.599 152.991L138.969 152.948ZM130.286 161.195L130.244 162.825L130.265 162.826L130.286 162.826L130.286 161.195ZM129.838 161.184L129.755 162.812L129.775 162.813L129.795 162.813L129.838 161.184ZM121.603 152.948L119.973 152.991L119.973 153.011L119.974 153.031L121.603 152.948ZM121.591 152.503V150.873H119.917L119.961 152.546L121.591 152.503ZM124.965 152.503L126.595 152.502L126.595 150.873H124.965V152.503ZM130.286 157.821L130.286 159.452H130.286L130.286 157.821ZM135.607 152.503V150.873H133.977L133.976 152.502L135.607 152.503ZM138.981 152.503L140.61 152.546L140.654 150.873H138.981V152.503ZM138.969 152.948L137.341 152.866C137.151 156.597 134.065 159.565 130.286 159.565L130.286 161.195L130.286 162.826C135.811 162.825 140.32 158.487 140.597 153.031L138.969 152.948ZM130.286 161.195L130.329 159.566L129.881 159.554L129.838 161.184L129.795 162.813L130.244 162.825L130.286 161.195ZM129.838 161.184L129.921 159.555C126.31 159.372 123.414 156.476 123.231 152.866L121.603 152.948L119.974 153.031C120.242 158.312 124.474 162.544 129.755 162.812L129.838 161.184ZM121.603 152.948L123.232 152.905L123.221 152.46L121.591 152.503L119.961 152.546L119.973 152.991L121.603 152.948ZM121.591 152.503V154.133H124.965V152.503V150.873H121.591V152.503ZM124.965 152.503L123.335 152.504C123.336 156.342 126.448 159.452 130.286 159.452L130.286 157.821L130.286 156.191C128.248 156.191 126.596 154.54 126.595 152.502L124.965 152.503ZM130.286 157.821L130.286 159.452C134.124 159.451 137.235 156.341 137.237 152.504L135.607 152.503L133.976 152.502C133.975 154.54 132.324 156.191 130.286 156.191L130.286 157.821ZM135.607 152.503V154.133H138.981V152.503V150.873H135.607V152.503ZM138.981 152.503L137.351 152.46L137.339 152.905L138.969 152.948L140.599 152.991L140.61 152.546L138.981 152.503Z" fill="white" mask="url(#path-10-inside-2_212_122)"/>
<mask id="path-12-inside-3_212_122" fill="white">
<path d="M121.604 169.442C121.837 164.848 125.635 161.195 130.287 161.195L130.735 161.207C135.18 161.432 138.745 164.997 138.97 169.442L138.982 169.887L135.608 169.887C135.607 166.95 133.225 164.569 130.287 164.569C127.349 164.569 124.967 166.95 124.966 169.887L121.592 169.887L121.604 169.442Z"/>
</mask>
<path d="M121.604 169.442C121.837 164.848 125.635 161.195 130.287 161.195L130.735 161.207C135.18 161.432 138.745 164.997 138.97 169.442L138.982 169.887L135.608 169.887C135.607 166.95 133.225 164.569 130.287 164.569C127.349 164.569 124.967 166.95 124.966 169.887L121.592 169.887L121.604 169.442Z" fill="white"/>
<path d="M121.604 169.442L119.976 169.36L119.975 169.379L119.974 169.399L121.604 169.442ZM130.287 161.195L130.329 159.565L130.308 159.565L130.286 159.565L130.287 161.195ZM130.735 161.207L130.817 159.579L130.797 159.578L130.777 159.577L130.735 161.207ZM138.97 169.442L140.6 169.399L140.599 169.379L140.598 169.36L138.97 169.442ZM138.982 169.887L138.982 171.518L140.656 171.518L140.612 169.845L138.982 169.887ZM135.608 169.887L133.978 169.888L133.978 171.518L135.608 171.518L135.608 169.887ZM130.287 164.569L130.287 162.939L130.286 162.939L130.287 164.569ZM124.966 169.887L124.966 171.518L126.596 171.518L126.596 169.888L124.966 169.887ZM121.592 169.887L119.962 169.845L119.918 171.518L121.592 171.518L121.592 169.887ZM121.604 169.442L123.232 169.525C123.421 165.794 126.508 162.826 130.287 162.825L130.287 161.195L130.286 159.565C124.762 159.565 120.253 163.903 119.976 169.36L121.604 169.442ZM130.287 161.195L130.244 162.825L130.692 162.837L130.735 161.207L130.777 159.577L130.329 159.565L130.287 161.195ZM130.735 161.207L130.652 162.835C134.262 163.018 137.159 165.915 137.342 169.525L138.97 169.442L140.598 169.36C140.33 164.079 136.098 159.847 130.817 159.579L130.735 161.207ZM138.97 169.442L137.34 169.485L137.352 169.93L138.982 169.887L140.612 169.845L140.6 169.399L138.97 169.442ZM138.982 169.887L138.982 168.257L135.608 168.257L135.608 169.887L135.608 171.518L138.982 171.518L138.982 169.887ZM135.608 169.887L137.238 169.887C137.237 166.049 134.125 162.939 130.287 162.939L130.287 164.569L130.287 166.199C132.325 166.199 133.977 167.851 133.978 169.888L135.608 169.887ZM130.287 164.569L130.286 162.939C126.448 162.939 123.337 166.049 123.336 169.887L124.966 169.887L126.596 169.888C126.597 167.851 128.249 166.2 130.287 166.199L130.287 164.569ZM124.966 169.887L124.966 168.257L121.592 168.257L121.592 169.887L121.592 171.518L124.966 171.518L124.966 169.887ZM121.592 169.887L123.222 169.93L123.234 169.485L121.604 169.442L119.974 169.399L119.962 169.845L121.592 169.887Z" fill="white" mask="url(#path-12-inside-3_212_122)"/>
</svg>
