<svg width="239" height="239" viewBox="0 0 239 239" fill="none" xmlns="http://www.w3.org/2000/svg">
<path d="M97.5645 64C108.922 64 118.129 73.207 118.129 84.5645V100.723C118.129 103.156 116.156 105.129 113.723 105.129H98.9355V85.9355H96.1934V105.129H81.4062C78.9728 105.129 77.0001 103.156 77 100.723V84.5645C77 73.207 86.207 64 97.5645 64Z" fill="#2D2D2D"/>
<path d="M141.436 149C130.078 149 120.871 139.793 120.871 128.436L120.871 112.277C120.871 109.844 122.844 107.871 125.277 107.871L140.064 107.871L140.064 127.064L142.807 127.064L142.807 107.871L157.594 107.871C160.027 107.871 162 109.844 162 112.277L162 128.436C162 139.793 152.793 149 141.436 149Z" fill="#2D2D2D"/>
<path d="M120.871 84.5659C120.871 73.2085 130.078 64.0015 141.436 64.0015C152.332 64.0015 161.247 72.4761 161.953 83.1938L142.807 83.1938L142.807 85.9351L161.953 85.9351C161.248 96.6541 152.333 105.13 141.436 105.13C130.078 105.13 120.871 95.9233 120.871 84.5659Z" fill="#2D2D2D"/>
<path d="M77 128.437C77 123.251 78.9192 118.514 82.0859 114.896L92.7773 125.587L94.7168 123.648L84.0254 112.958C87.6429 109.791 92.3797 107.871 97.5654 107.871C102.534 107.871 107.091 109.634 110.646 112.567L99.5625 123.65L101.501 125.589L112.64 114.451C116.045 118.121 118.129 123.034 118.129 128.435C118.129 133.62 116.209 138.358 113.042 141.976L101.203 130.136L99.2637 132.074L111.103 143.914C107.485 147.08 102.749 149 97.5645 149C92.1634 149 87.2486 146.917 83.5791 143.512L95.0146 132.077L93.0762 130.138L81.6963 141.518C78.7624 137.963 77 133.405 77 128.437Z" fill="#2D2D2D"/>
<path d="M79 176.497V167.802C79 163.6 82.4062 160.194 86.608 160.194C90.8097 160.194 94.2159 163.6 94.2159 167.802V176.497" stroke="#2D2D2D" stroke-width="3.37354"/>
<path d="M160 159.107L160 167.802C160 172.004 156.594 175.41 152.392 175.41C148.19 175.41 144.784 172.004 144.784 167.802L144.784 159.107" stroke="#2D2D2D" stroke-width="3.37354"/>
<mask id="path-7-inside-1_134_187" fill="white">
<path d="M109.227 159.125C113.821 159.358 117.474 163.157 117.474 167.809L117.463 168.256C117.453 168.441 117.435 168.624 117.415 168.806H114.006C114.067 168.483 114.1 168.149 114.1 167.809C114.1 164.87 111.718 162.488 108.78 162.487C105.841 162.487 103.459 164.87 103.459 167.809C103.459 170.747 105.841 173.129 108.78 173.129C110.739 173.129 112.449 172.07 113.373 170.493H117.048C115.917 173.981 112.644 176.503 108.78 176.503L108.332 176.491C103.886 176.266 100.322 172.701 100.096 168.256L100.085 167.809C100.085 163.007 103.978 159.113 108.78 159.113L109.227 159.125Z"/>
</mask>
<path d="M109.227 159.125C113.821 159.358 117.474 163.157 117.474 167.809L117.463 168.256C117.453 168.441 117.435 168.624 117.415 168.806H114.006C114.067 168.483 114.1 168.149 114.1 167.809C114.1 164.87 111.718 162.488 108.78 162.487C105.841 162.487 103.459 164.87 103.459 167.809C103.459 170.747 105.841 173.129 108.78 173.129C110.739 173.129 112.449 172.07 113.373 170.493H117.048C115.917 173.981 112.644 176.503 108.78 176.503L108.332 176.491C103.886 176.266 100.322 172.701 100.096 168.256L100.085 167.809C100.085 163.007 103.978 159.113 108.78 159.113L109.227 159.125Z" fill="#2D2D2D"/>
<path d="M109.227 159.125L109.31 157.497L109.29 157.496L109.27 157.495L109.227 159.125ZM117.474 167.809L119.104 167.851L119.105 167.83V167.809L117.474 167.809ZM117.463 168.256L119.091 168.338L119.092 168.319L119.092 168.299L117.463 168.256ZM117.415 168.806V170.436H118.869L119.034 168.991L117.415 168.806ZM114.006 168.806L112.404 168.502L112.037 170.436H114.006V168.806ZM114.1 167.809L115.731 167.809V167.809L114.1 167.809ZM108.78 162.487L108.78 160.857H108.78L108.78 162.487ZM103.459 167.809L101.828 167.809V167.809L103.459 167.809ZM108.78 173.129L108.78 174.759H108.78L108.78 173.129ZM113.373 170.493V168.863H112.438L111.966 169.669L113.373 170.493ZM117.048 170.493L118.599 170.996L119.291 168.863H117.048V170.493ZM108.78 176.503L108.737 178.133L108.759 178.133L108.78 178.133L108.78 176.503ZM108.332 176.491L108.249 178.119L108.269 178.12L108.289 178.121L108.332 176.491ZM100.096 168.256L98.4666 168.299L98.4671 168.319L98.4682 168.338L100.096 168.256ZM100.085 167.809L98.4543 167.809L98.4543 167.83L98.4549 167.851L100.085 167.809ZM108.78 159.113L108.823 157.484L108.801 157.483L108.78 157.483L108.78 159.113ZM109.227 159.125L109.145 160.753C112.876 160.942 115.844 164.03 115.844 167.809L117.474 167.809L119.105 167.809C119.104 162.284 114.766 157.774 109.31 157.497L109.227 159.125ZM117.474 167.809L115.845 167.766L115.833 168.213L117.463 168.256L119.092 168.299L119.104 167.851L117.474 167.809ZM117.463 168.256L115.834 168.173C115.827 168.31 115.814 168.456 115.795 168.621L117.415 168.806L119.034 168.991C119.057 168.792 119.079 168.571 119.091 168.338L117.463 168.256ZM117.415 168.806V167.175H114.006V168.806V170.436H117.415V168.806ZM114.006 168.806L115.607 169.109C115.687 168.691 115.73 168.256 115.731 167.809L114.1 167.809L112.47 167.808C112.47 168.042 112.447 168.274 112.404 168.502L114.006 168.806ZM114.1 167.809L115.731 167.809C115.73 163.97 112.619 160.857 108.78 160.857L108.78 162.487L108.78 164.118C110.818 164.118 112.47 165.77 112.47 167.809L114.1 167.809ZM108.78 162.487L108.78 160.857C104.941 160.857 101.829 163.97 101.828 167.809L103.459 167.809L105.089 167.809C105.089 165.77 106.742 164.118 108.78 164.118L108.78 162.487ZM103.459 167.809L101.828 167.809C101.829 171.648 104.941 174.759 108.78 174.759L108.78 173.129L108.78 171.499C106.741 171.499 105.089 169.847 105.089 167.808L103.459 167.809ZM108.78 173.129L108.78 174.759C111.342 174.759 113.576 173.372 114.779 171.317L113.373 170.493L111.966 169.669C111.323 170.767 110.136 171.499 108.78 171.499L108.78 173.129ZM113.373 170.493V172.123H117.048V170.493V168.863H113.373V170.493ZM117.048 170.493L115.498 169.99C114.578 172.826 111.916 174.872 108.78 174.873L108.78 176.503L108.78 178.133C113.372 178.133 117.256 175.135 118.599 170.996L117.048 170.493ZM108.78 176.503L108.823 174.873L108.374 174.861L108.332 176.491L108.289 178.121L108.737 178.133L108.78 176.503ZM108.332 176.491L108.414 174.863C104.804 174.68 101.908 171.783 101.725 168.173L100.096 168.256L98.4682 168.338C98.7361 173.619 102.968 177.851 108.249 178.119L108.332 176.491ZM100.096 168.256L101.726 168.213L101.714 167.766L100.085 167.809L98.4549 167.851L98.4666 168.299L100.096 168.256ZM100.085 167.809L101.715 167.809C101.715 163.907 104.878 160.744 108.78 160.744L108.78 159.113L108.78 157.483C103.078 157.483 98.4545 162.106 98.4543 167.809L100.085 167.809ZM108.78 159.113L108.737 160.743L109.185 160.755L109.227 159.125L109.27 157.495L108.823 157.484L108.78 159.113Z" fill="#2D2D2D" mask="url(#path-7-inside-1_134_187)"/>
<path d="M106.832 166.276H116.531L117.374 168.806H106.832V166.276Z" fill="#2D2D2D"/>
<mask id="path-10-inside-2_134_187" fill="white">
<path d="M138.969 159.555C138.736 164.149 134.938 167.802 130.286 167.802L129.838 167.791C125.392 167.565 121.828 164.001 121.603 159.555L121.591 159.11H124.965C124.966 162.048 127.348 164.428 130.286 164.428C133.224 164.428 135.605 162.048 135.607 159.11H138.981L138.969 159.555Z"/>
</mask>
<path d="M138.969 159.555C138.736 164.149 134.938 167.802 130.286 167.802L129.838 167.791C125.392 167.565 121.828 164.001 121.603 159.555L121.591 159.11H124.965C124.966 162.048 127.348 164.428 130.286 164.428C133.224 164.428 135.605 162.048 135.607 159.11H138.981L138.969 159.555Z" fill="#2D2D2D"/>
<path d="M138.969 159.555L140.597 159.638L140.598 159.618L140.599 159.598L138.969 159.555ZM130.286 167.802L130.244 169.432L130.265 169.433L130.286 169.433L130.286 167.802ZM129.838 167.791L129.755 169.419L129.775 169.42L129.795 169.42L129.838 167.791ZM121.603 159.555L119.973 159.598L119.973 159.618L119.974 159.638L121.603 159.555ZM121.591 159.11V157.48H119.917L119.961 159.153L121.591 159.11ZM124.965 159.11L126.595 159.109L126.595 157.48H124.965V159.11ZM130.286 164.428L130.286 166.059H130.286L130.286 164.428ZM135.607 159.11V157.48H133.977L133.976 159.109L135.607 159.11ZM138.981 159.11L140.61 159.153L140.654 157.48H138.981V159.11ZM138.969 159.555L137.341 159.473C137.151 163.204 134.065 166.172 130.286 166.172L130.286 167.802L130.286 169.433C135.811 169.432 140.32 165.094 140.597 159.638L138.969 159.555ZM130.286 167.802L130.329 166.173L129.881 166.161L129.838 167.791L129.795 169.42L130.244 169.432L130.286 167.802ZM129.838 167.791L129.921 166.163C126.31 165.979 123.414 163.083 123.231 159.473L121.603 159.555L119.974 159.638C120.242 164.919 124.474 169.151 129.755 169.419L129.838 167.791ZM121.603 159.555L123.232 159.513L123.221 159.067L121.591 159.11L119.961 159.153L119.973 159.598L121.603 159.555ZM121.591 159.11V160.74H124.965V159.11V157.48H121.591V159.11ZM124.965 159.11L123.335 159.111C123.336 162.949 126.448 166.059 130.286 166.059L130.286 164.428L130.286 162.798C128.248 162.798 126.596 161.147 126.595 159.109L124.965 159.11ZM130.286 164.428L130.286 166.059C134.124 166.058 137.235 162.949 137.237 159.111L135.607 159.11L133.976 159.109C133.975 161.147 132.324 162.798 130.286 162.798L130.286 164.428ZM135.607 159.11V160.74H138.981V159.11V157.48H135.607V159.11ZM138.981 159.11L137.351 159.067L137.339 159.513L138.969 159.555L140.599 159.598L140.61 159.153L138.981 159.11Z" fill="#2D2D2D" mask="url(#path-10-inside-2_134_187)"/>
<mask id="path-12-inside-3_134_187" fill="white">
<path d="M121.604 176.049C121.837 171.456 125.635 167.803 130.287 167.802L130.735 167.814C135.18 168.039 138.745 171.604 138.97 176.049L138.982 176.495L135.608 176.495C135.607 173.557 133.225 171.176 130.287 171.176C127.349 171.177 124.967 173.557 124.966 176.495L121.592 176.495L121.604 176.049Z"/>
</mask>
<path d="M121.604 176.049C121.837 171.456 125.635 167.803 130.287 167.802L130.735 167.814C135.18 168.039 138.745 171.604 138.97 176.049L138.982 176.495L135.608 176.495C135.607 173.557 133.225 171.176 130.287 171.176C127.349 171.177 124.967 173.557 124.966 176.495L121.592 176.495L121.604 176.049Z" fill="#2D2D2D"/>
<path d="M121.604 176.049L119.976 175.967L119.975 175.987L119.974 176.006L121.604 176.049ZM130.287 167.802L130.329 166.173L130.308 166.172L130.286 166.172L130.287 167.802ZM130.735 167.814L130.817 166.186L130.797 166.185L130.777 166.184L130.735 167.814ZM138.97 176.049L140.6 176.006L140.599 175.987L140.598 175.967L138.97 176.049ZM138.982 176.495L138.982 178.125L140.656 178.125L140.612 176.452L138.982 176.495ZM135.608 176.495L133.978 176.495L133.978 178.125L135.608 178.125L135.608 176.495ZM130.287 171.176L130.287 169.546L130.286 169.546L130.287 171.176ZM124.966 176.495L124.966 178.125L126.596 178.125L126.596 176.495L124.966 176.495ZM121.592 176.495L119.962 176.452L119.918 178.125L121.592 178.125L121.592 176.495ZM121.604 176.049L123.232 176.132C123.421 172.401 126.508 169.433 130.287 169.433L130.287 167.802L130.286 166.172C124.762 166.172 120.253 170.51 119.976 175.967L121.604 176.049ZM130.287 167.802L130.244 169.432L130.692 169.444L130.735 167.814L130.777 166.184L130.329 166.173L130.287 167.802ZM130.735 167.814L130.652 169.442C134.262 169.625 137.159 172.522 137.342 176.132L138.97 176.049L140.598 175.967C140.33 170.686 136.098 166.454 130.817 166.186L130.735 167.814ZM138.97 176.049L137.34 176.092L137.352 176.538L138.982 176.495L140.612 176.452L140.6 176.006L138.97 176.049ZM138.982 176.495L138.982 174.864L135.608 174.864L135.608 176.495L135.608 178.125L138.982 178.125L138.982 176.495ZM135.608 176.495L137.238 176.494C137.237 172.656 134.125 169.546 130.287 169.546L130.287 171.176L130.287 172.807C132.325 172.807 133.977 174.458 133.978 176.495L135.608 176.495ZM130.287 171.176L130.286 169.546C126.448 169.546 123.337 172.656 123.336 176.494L124.966 176.495L126.596 176.495C126.597 174.458 128.249 172.807 130.287 172.807L130.287 171.176ZM124.966 176.495L124.966 174.864L121.592 174.864L121.592 176.495L121.592 178.125L124.966 178.125L124.966 176.495ZM121.592 176.495L123.222 176.538L123.234 176.092L121.604 176.049L119.974 176.006L119.962 176.452L121.592 176.495Z" fill="#2D2D2D" mask="url(#path-12-inside-3_134_187)"/>
</svg>
