<svg width="82" height="82" viewBox="0 0 82 82" fill="none" xmlns="http://www.w3.org/2000/svg">
<path d="M82 41C82 18.3563 63.6437 0 41 0C18.3563 0 -2.28882e-05 18.3563 -2.28882e-05 41V76.9606C-2.28882e-05 79.7438 2.2562 82 5.03939 82H41C63.6437 82 82 63.6437 82 41Z" fill="#979797"/>
<path d="M0 41C0 18.3563 18.3563 0 41 0V0C63.6437 0 82 18.3563 82 41V41C82 63.6437 63.6437 82 41 82V82C18.3563 82 0 63.6437 0 41V41Z" fill="#363636"/>
<path d="M29.253 27.9905C29.1214 27.5391 29.5398 27.1207 29.9912 27.2523L60.5059 36.1519C61.0226 36.3031 61.0892 37.0076 60.6101 37.2533L47.0025 44.2264L46.4894 44.4894L46.227 45.0018L39.254 58.6095C39.0083 59.0888 38.3037 59.0221 38.1526 58.5052L29.253 27.9905Z" stroke="white" stroke-width="3.57394"/>
</svg>
