<svg width="207" height="43" viewBox="0 0 207 43" fill="none" xmlns="http://www.w3.org/2000/svg">
<g clip-path="url(#clip0_146_1109)">
<g clip-path="url(#clip1_146_1109)">
<g clip-path="url(#clip2_146_1109)">
<path d="M49.7344 1.16406H56.4963C60.4975 1.16406 61.9879 2.80454 61.9879 5.84542V8.23611C61.9879 11.237 60.3775 12.8975 56.3363 12.8975H53.0153V18.5191H49.7344V1.16406ZM56.3163 4.0449H53.0153V9.98662H56.3163C58.1668 9.98662 58.707 9.30642 58.707 7.87601V6.10549C58.707 4.67508 58.1168 4.0449 56.3163 4.0449Z" fill="black"/>
<path d="M65.1189 18.4891V1.16406H75.842V4.0449H68.3998V8.64623H75.2718V11.5371H68.3998V18.4891H65.1189Z" fill="black"/>
<path d="M87.5455 14.898H81.1236L80.0233 18.4891H76.5923L82.0239 1.16406H86.6052L92.0668 18.4991H88.6658L87.5455 14.898ZM81.9238 12.0672H86.7152L84.3445 3.86485L81.9238 12.0672Z" fill="black"/>
<path d="M98.3786 15.6082H105.511V18.4991H95.0977V1.16406H98.3786V15.6082Z" fill="black"/>
<path d="M112.032 15.7083H120.035V18.4891H108.371V15.7383L116.374 3.94487H108.671V1.16406H120.035V3.94487L112.032 15.7083Z" fill="black"/>
<path d="M139.661 14.588L142.961 1.16406H146.212L141.921 18.4991H137.5L134.319 4.54504L131.148 18.4991H126.727L122.426 1.16406H125.676L128.977 14.588L132.138 1.16406H136.51L139.661 14.588Z" fill="black"/>
<path d="M148.953 1.16406H159.576V4.0449H152.234V8.23611H159.046V11.127H152.284V15.5982H159.626V18.4891H148.953V1.16406Z" fill="black"/>
<path d="M173.73 18.4891L169.729 12.7674H166.608V18.4891H163.347V1.16406H170.449C174.451 1.16406 175.971 2.80454 175.971 5.84542V8.10607C175.971 10.1867 175.191 11.6471 173.37 12.2973L177.662 18.4891H173.73ZM170.319 4.0449H166.628V9.9266H170.319C172.11 9.9266 172.69 9.27641 172.69 7.81599V6.10549C172.69 4.64507 172.05 4.0449 170.319 4.0449Z" fill="black"/>
<path d="M183.933 18.4891H180.652V1.16406H183.933V18.4891ZM188.054 9.72654L193.886 18.4991H190.055L184.383 9.72654L189.745 1.16406H193.466L188.054 9.72654Z" fill="black"/>
<path d="M196.377 1.16406H206.99V4.0449H199.658V8.23611H206.42V11.127H199.658V15.5982H207V18.4891H196.377V1.16406Z" fill="black"/>
<path d="M53.0153 36.4744C53.0153 38.1649 53.7455 39.1552 56.0162 39.1552C56.9137 39.1498 57.8096 39.0796 58.697 38.9451V33.6936H61.7979V41.3158C59.9067 41.83 57.956 42.0924 55.9962 42.096C51.755 42.096 49.7244 40.2955 49.7244 36.8645V29.4723C49.7244 25.9013 51.795 24.2408 56.2963 24.2408C57.9802 24.2312 59.6592 24.4226 61.2977 24.811L60.9176 27.6818C59.3042 27.3603 57.661 27.2127 56.0162 27.2417C53.7255 27.2417 53.0153 28.182 53.0153 29.9525V36.5144V36.4744Z" fill="black"/>
<path d="M76.092 41.836L72.0908 36.1143H69.0199V41.836H65.709V24.501H72.811C76.8122 24.501 78.3226 26.1415 78.3226 29.1823V31.443C78.3226 33.5236 77.5424 34.984 75.7219 35.6342L80.0231 41.836H76.092ZM72.691 27.3918H69.0199V33.2435H72.711C74.5115 33.2435 75.0817 32.5933 75.0817 31.1329V29.4524C75.0217 27.992 74.4315 27.3918 72.691 27.3918Z" fill="black"/>
<path d="M95.4377 24.501V36.8145C95.4377 39.5453 93.8973 42.0961 89.0359 42.0961C84.1745 42.0961 82.634 39.5453 82.634 36.8145V24.501H85.915V36.5045C85.905 38.245 86.7152 39.2452 89.0259 39.2452C91.3366 39.2452 92.1468 38.245 92.1468 36.5945V24.591H95.4277L95.4377 24.501Z" fill="black"/>
<path d="M99.5989 24.501H106.361C110.362 24.501 111.852 26.1415 111.852 29.1823V31.553C111.852 34.5539 110.242 36.2144 106.211 36.2144H102.88V41.836H99.5989V24.501ZM106.181 27.3918H102.88V33.3235H106.181C108.031 33.3235 108.571 32.6433 108.571 31.2129V29.4524C108.581 28.022 108.031 27.3918 106.181 27.3918Z" fill="black"/>
<path d="M115.033 24.501H121.795C125.797 24.501 127.287 26.1415 127.287 29.1823V31.553C127.287 34.5539 125.677 36.2144 121.645 36.2144H118.314V41.836H115.033V24.501ZM121.615 27.3918H118.314V33.3235H121.615C123.466 33.3235 124.006 32.6433 124.006 31.2129V29.4524C123.966 28.022 123.366 27.3918 121.565 27.3918H121.615Z" fill="black"/>
<path d="M130.368 24.501H140.991V27.3918H133.649V31.583H140.411V34.4739H133.649V38.9452H140.991V41.836H130.368V24.501Z" fill="black"/>
<path d="M21.2762 41.2958C32.2091 41.2958 41.0719 32.433 41.0719 21.5001C41.0719 10.5672 32.2091 1.70435 21.2762 1.70435C10.3433 1.70435 1.48047 10.5672 1.48047 21.5001C1.48047 32.433 10.3433 41.2958 21.2762 41.2958Z" fill="url(#paint0_linear_146_1109)"/>
<path d="M21.2761 6.2356C18.2499 6.2356 15.2917 7.13337 12.7759 8.81527C10.2601 10.4972 8.29975 12.8876 7.14304 15.6841C5.98633 18.4805 5.6852 21.5572 6.27778 24.5249C6.87035 27.4925 8.32999 30.2177 10.472 32.3554C12.6139 34.4932 15.3419 35.9475 18.3107 36.5342C21.2795 37.121 24.3557 36.8138 27.1498 35.6516C29.944 34.4894 32.3306 32.5244 34.0076 30.0053C35.6845 27.4862 36.5765 24.5262 36.5705 21.5C36.5626 17.4489 34.9477 13.5664 32.0803 10.7046C29.2129 7.84284 25.3272 6.23559 21.2761 6.2356ZM28.8283 10.0567C26.8449 11.7793 25.3394 13.9842 24.457 16.4586C24.2675 15.6757 24.0338 14.9042 23.7568 14.1479C24.6632 12.3012 25.9007 10.6365 27.4079 9.23647C27.8924 9.46958 28.3633 9.73007 28.8183 10.0167L28.8283 10.0567ZM25.9274 8.60628C24.7968 9.72232 23.815 10.9798 23.0066 12.3474C22.7465 11.7972 22.4564 11.2571 22.1564 10.7469C22.7729 9.79926 23.4689 8.90578 24.237 8.07613C24.814 8.20173 25.3821 8.36547 25.9375 8.56627L25.9274 8.60628ZM23.5768 21.9201C23.5382 23.5437 23.2996 25.1563 22.8666 26.7215C21.7333 23.3293 21.7333 19.6607 22.8666 16.2685C23.3 17.8336 23.5386 19.4463 23.5768 21.0699V21.49V21.9201ZM19.0054 21.0899C19.0299 19.4508 19.2584 17.8211 19.6856 16.2385C20.8174 19.6309 20.8174 23.2991 19.6856 26.6915C19.2642 25.1315 19.0358 23.5258 19.0054 21.9101V21.51V21.0899ZM20.4559 14.0879C20.6971 13.4572 20.9708 12.8396 21.2761 12.2373C21.5901 12.826 21.8739 13.4303 22.1263 14.0479C21.7901 14.801 21.506 15.5764 21.2761 16.3685C21.0453 15.5767 20.7613 14.8014 20.4259 14.0479L20.4559 14.0879ZM21.3061 26.6615C21.5362 27.4536 21.8203 28.2289 22.1564 28.9822C21.9038 29.5965 21.62 30.1974 21.3061 30.7827C20.9919 30.1941 20.7081 29.5898 20.4559 28.9722C20.7879 28.2219 21.0686 27.4499 21.2961 26.6615H21.3061ZM21.3061 7.78605C21.7062 7.78605 22.1063 7.78605 22.5165 7.84606C22.0963 8.34621 21.6862 8.84635 21.3061 9.42652C20.936 8.88636 20.5259 8.35621 20.0958 7.84606C20.4959 7.84606 20.906 7.78605 21.2961 7.78605H21.3061ZM18.3052 8.11614C19.073 8.94601 19.769 9.83947 20.3858 10.7869C20.0858 11.3071 19.7957 11.8472 19.5356 12.3874C18.7307 11.0053 17.7488 9.73416 16.6147 8.60628C17.1669 8.40612 17.7316 8.24239 18.3052 8.11614ZM15.1443 9.23647C16.6538 10.633 17.8946 12.2942 18.8054 14.1379C18.5281 14.8941 18.2943 15.6656 18.1052 16.4486C17.2224 13.9744 15.7169 11.7696 13.7339 10.0467C14.1849 9.75022 14.6525 9.4797 15.1343 9.23647H15.1443ZM12.4936 32.0631C10.9394 30.7763 9.68838 29.1624 8.82966 27.3365C7.97095 25.5106 7.52571 23.5177 7.52571 21.5C7.52571 19.4823 7.97095 17.4894 8.82966 15.6635C9.68838 13.8377 10.9394 12.2238 12.4936 10.937C14.0228 12.1926 15.2618 13.7647 16.1252 15.545C16.9886 17.3254 17.4559 19.2717 17.495 21.2499V21.7501C17.4552 23.7282 16.9876 25.6743 16.1243 27.4546C15.2609 29.2348 14.0223 30.807 12.4936 32.0631ZM13.7239 32.9833C15.7076 31.2611 17.2132 29.056 18.0952 26.5815C18.2841 27.3645 18.5179 28.136 18.7954 28.8922C17.8846 30.7359 16.6438 32.3971 15.1343 33.7936C14.6488 33.5513 14.1778 33.2808 13.7239 32.9833ZM16.6147 34.4338C17.749 33.3024 18.7309 32.028 19.5356 30.6427C19.7957 31.1928 20.0858 31.733 20.3858 32.2431C19.7695 33.194 19.0734 34.0909 18.3052 34.9239C17.7353 34.7963 17.174 34.6326 16.6248 34.4338H16.6147ZM21.2761 35.244C20.876 35.244 20.4759 35.244 20.0657 35.184C20.4959 34.6738 20.896 34.1837 21.2761 33.6035C21.6562 34.1437 22.0563 34.6738 22.4865 35.184C22.0763 35.244 21.6762 35.244 21.2761 35.244ZM24.277 34.9239C23.4917 34.0927 22.7789 33.1958 22.1464 32.2431C22.4464 31.733 22.7365 31.1928 22.9966 30.6427C23.802 32.0275 24.7838 33.3018 25.9174 34.4338C25.3649 34.6328 24.8003 34.7966 24.227 34.9239H24.277ZM27.4579 33.7936C25.9481 32.3974 24.7072 30.7361 23.7968 28.8922C24.0741 28.1359 24.3079 27.3644 24.497 26.5815C25.379 29.056 26.8846 31.2611 28.8683 32.9833C28.4145 33.281 27.9436 33.5515 27.4579 33.7936ZM30.0086 32.0631C28.4842 30.8099 27.2482 29.2424 26.385 27.4677C25.5219 25.6931 25.0519 23.753 25.0072 21.7801V21.2399C25.0484 19.2635 25.5167 17.3193 26.38 15.5409C27.2433 13.7625 28.4812 12.1919 30.0086 10.937C31.5628 12.2238 32.8138 13.8377 33.6725 15.6635C34.5312 17.4894 34.9765 19.4823 34.9765 21.5C34.9765 23.5177 34.5312 25.5106 33.6725 27.3365C32.8138 29.1624 31.5628 30.7763 30.0086 32.0631Z" fill="white"/>
<path d="M21.2662 0.233887C17.0601 0.233887 12.9485 1.48113 9.45133 3.81788C5.95412 6.15464 3.22839 9.47596 1.6188 13.3618C0.00921433 17.2477 -0.411927 21.5236 0.408633 25.6489C1.22919 29.7741 3.2546 33.5634 6.22872 36.5375C9.20285 39.5116 12.9921 41.537 17.1173 42.3576C21.2426 43.1782 25.5185 42.757 29.4044 41.1474C33.2903 39.5378 36.6116 36.8121 38.9483 33.3149C41.2851 29.8177 42.5323 25.7061 42.5323 21.5001C42.527 15.8615 40.2848 10.4555 36.2978 6.46845C32.3107 2.48142 26.9047 0.239184 21.2662 0.233887ZM21.2662 41.3058C17.349 41.3058 13.5197 40.1442 10.2627 37.9679C7.00566 35.7916 4.4671 32.6984 2.96806 29.0794C1.46901 25.4604 1.07679 21.4781 1.84099 17.6361C2.6052 13.7942 4.49152 10.2652 7.2614 7.49528C10.0313 4.72539 13.5603 2.83908 17.4023 2.07487C21.2442 1.31066 25.2265 1.70288 28.8455 3.20193C32.4645 4.70098 35.5578 7.23953 37.734 10.4966C39.9103 13.7536 41.0719 17.5828 41.0719 21.5001C41.0666 26.7512 38.9782 31.7858 35.2651 35.499C31.552 39.2121 26.5174 41.3005 21.2662 41.3058Z" fill="white"/>
</g>
</g>
</g>
<defs>
<linearGradient id="paint0_linear_146_1109" x1="7.27215" y1="35.4941" x2="35.2703" y2="7.50603" gradientUnits="userSpaceOnUse">
<stop offset="0.24" stop-color="#D31628"/>
<stop offset="0.37" stop-color="#D41A29"/>
<stop offset="0.48" stop-color="#D6242B"/>
<stop offset="0.58" stop-color="#DA362F"/>
<stop offset="0.69" stop-color="#DF5035"/>
<stop offset="0.79" stop-color="#E6713C"/>
<stop offset="0.88" stop-color="#EE9845"/>
<stop offset="0.95" stop-color="#F5BA4C"/>
</linearGradient>
<clipPath id="clip0_146_1109">
<rect width="207" height="43" fill="white"/>
</clipPath>
<clipPath id="clip1_146_1109">
<rect width="207" height="43" fill="white"/>
</clipPath>
<clipPath id="clip2_146_1109">
<rect width="207" height="43" fill="white"/>
</clipPath>
</defs>
</svg>
