<svg id="Gruppe_7" data-name="Gruppe 7" xmlns="http://www.w3.org/2000/svg" xmlns:xlink="http://www.w3.org/1999/xlink" width="197.749" height="30" viewBox="0 0 197.749 30">
  <defs>
    <clipPath id="clip-path">
      <rect id="Rechteck_6" data-name="Rechteck 6" width="197.749" height="30" fill="none"/>
    </clipPath>
  </defs>
  <rect id="Rechteck_5" data-name="Rechteck 5" width="8.743" height="29.005" transform="translate(0 0.498)" fill="#004788"/>
  <g id="Gruppe_2" data-name="Gruppe 2" transform="translate(0 0)">
    <g id="Gruppe_1" data-name="Gruppe 1" clip-path="url(#clip-path)">
      <path id="Pfad_1" data-name="Pfad 1" d="M300.017,148.924h-8.743v-20.3h-.082c-2.238,7.583-4.557,13.964-6.877,20.3H278.8c-2.362-6.34-4.723-12.721-7-20.3h-.083v20.3h-6.878v-29h11.85c1.989,5.551,3.978,11.063,5.926,17.858h.083c1.864-6.8,3.812-12.307,5.718-17.858h11.6Z" transform="translate(-248.224 -119.422)" fill="#004788"/>
      <path id="Pfad_2" data-name="Pfad 2" d="M351.215,125.56a8.262,8.262,0,0,0-4.268-1.076c-1.7,0-2.568.828-2.568,1.78,0,1.616,2.444,2.943,5.262,5.553,3.729,3.481,4.642,5.677,4.642,8.7,0,2.569-2.114,8.536-10.815,8.536-3.4,0-6.8-.788-9.117-2.653L337,141.6a8.244,8.244,0,0,0,4.973,2.03c1.74,0,3.646-.87,3.646-3.024,0-2.32-2.818-4.02-5.1-6.009-3.024-2.652-4.806-4.185-4.806-7.749,0-4.64,4.682-7.789,10.151-7.789A15.432,15.432,0,0,1,353.453,121Z" transform="translate(-277.711 -119.055)" fill="#004788"/>
      <path id="Pfad_3" data-name="Pfad 3" d="M385.455,129.154a2.653,2.653,0,1,1-2.652,2.653,2.727,2.727,0,0,1,2.652-2.653m0,15.083a2.652,2.652,0,1,1-2.652,2.652,2.726,2.726,0,0,1,2.652-2.652" transform="translate(-298.264 -123.339)" fill="#b3b4b5"/>
      <path id="Pfad_4" data-name="Pfad 4" d="M428.549,135.3v11.809a30.6,30.6,0,0,1-10.027,1.948c-10.318,0-15.622-7.127-15.622-15.084,0-7.333,5.719-14.916,16.158-14.916a14.939,14.939,0,0,1,9.283,2.817l-1.656,2.4a13.488,13.488,0,0,0-7.583-2.32c-7.543,0-11.768,5.137-11.768,11.932,0,7.333,5.013,12.265,11.312,12.265a13.022,13.022,0,0,0,5.884-1.036V135.3Z" transform="translate(-306.789 -119.055)" fill="#004788"/>
      <path id="Pfad_5" data-name="Pfad 5" d="M473.788,122.82H463.51v9.365h10.07v2.9H463.51v10.939h12.058v2.9H459.494v-29h14.294Z" transform="translate(-330.796 -119.422)" fill="#004788"/>
      <path id="Pfad_6" data-name="Pfad 6" d="M508.341,119.92l10.814,29h-4.639l-2.983-8.535H500.47l-3.108,8.535h-3.9l11.811-29Zm2.239,17.568c-1.45-4.02-2.859-8.038-4.311-13.258h-.08a139.491,139.491,0,0,1-4.6,13.258Z" transform="translate(-345.207 -119.422)" fill="#004788"/>
      <path id="Pfad_7" data-name="Pfad 7" d="M546.317,119.92H554.6c4.723,0,8.411,2.444,8.411,7.459,0,4.267-2.072,6.671-4.848,8.452l7.209,12.348-4.061,1.244L554.6,136.908h-4.268v12.016h-4.019Zm4.019,14.088h2.277c5.138,0,6.091-3.813,6.091-6.257,0-3.563-2.236-4.931-4.929-4.931h-3.439Z" transform="translate(-367.626 -119.422)" fill="#004788"/>
    </g>
  </g>
</svg>
