<svg width="186" height="42" viewBox="0 0 186 42" fill="none" xmlns="http://www.w3.org/2000/svg">
<path d="M20.5645 0C31.9219 0 41.1289 9.20701 41.1289 20.5645V36.7227C41.1288 39.1562 39.1562 41.1287 36.7227 41.1289H21.9355V21.9355H19.1934V41.1289H4.40625C1.97279 41.1287 0.000138274 39.1561 0 36.7227V20.5645C3.84333e-05 9.20704 9.20704 3.19551e-05 20.5645 0Z" fill="#2D2D2D"/>
<path d="M164.564 41.1289C153.207 41.1289 144 31.9219 144 20.5644L144 4.40625C144 1.97273 145.973 0.000167371 148.406 -3.21038e-06L163.193 -1.91765e-06L163.193 19.1934L165.936 19.1934L165.936 -1.67792e-06L180.723 -3.85189e-07C183.156 0.000235526 185.129 1.97277 185.129 4.40625L185.129 20.5645C185.129 31.9219 175.922 41.1289 164.564 41.1289Z" fill="#2D2D2D"/>
<path d="M48 20.5645C48 9.20701 57.207 3.15549e-05 68.5645 -8.98901e-07C79.4608 -1.3752e-06 88.376 8.47467 89.082 19.1924L69.9355 19.1924L69.9355 21.9336L89.082 21.9336C88.3773 32.6526 79.4618 41.1289 68.5645 41.1289C57.207 41.1289 48 31.9219 48 20.5645Z" fill="#2D2D2D"/>
<path d="M96 20.5654C96 15.38 97.9192 10.6428 101.086 7.02539L111.777 17.7158L113.717 15.7773L103.025 5.08691C106.643 1.91987 111.38 2.64066e-05 116.565 -8.98943e-07C121.534 -1.11613e-06 126.091 1.76265 129.646 4.69629L118.562 15.7793L120.501 17.7178L131.64 6.58008C135.045 10.2495 137.129 15.1626 137.129 20.5635C137.129 25.7492 135.209 30.487 132.042 34.1045L120.203 22.2646L118.264 24.2031L130.103 36.043C126.485 39.2093 121.749 41.1288 116.564 41.1289C111.163 41.1289 106.249 39.0462 102.579 35.6406L114.015 24.2061L112.076 22.2666L100.696 33.6465C97.7624 30.0918 96 25.5344 96 20.5654Z" fill="#2D2D2D"/>
</svg>
