<svg width="850" height="850" viewBox="0 0 850 850" fill="none" xmlns="http://www.w3.org/2000/svg">
<path d="M205.646 0C319.22 0.000206165 411.29 92.071 411.29 205.646V367.224C411.29 391.561 391.561 411.291 367.224 411.291H44.0674C19.7299 411.291 0 391.561 0 367.224V205.645C0.000248713 92.0701 92.071 0 205.646 0ZM191.938 219.354V411.288H219.357V219.354H191.938Z" fill="#222B39"/>
<path d="M644.354 850C530.78 850 438.71 757.929 438.71 644.354L438.71 482.776C438.71 458.439 458.439 438.709 482.776 438.709L805.933 438.709C830.27 438.709 850 458.439 850 482.776L850 644.355C850 757.93 757.929 850 644.354 850ZM658.062 630.647L658.062 438.712L630.643 438.712L630.643 630.647L658.062 630.647Z" fill="#222B39"/>
<path d="M438.711 205.658C438.711 92.0837 530.782 0.0136679 644.356 0.0136629C753.319 0.0138412 842.486 84.7583 849.549 191.934L658.066 191.934L658.066 219.354L849.551 219.353C842.503 326.543 753.329 411.303 644.356 411.304C530.782 411.304 438.711 319.233 438.711 205.658Z" fill="#222B39"/>
<path d="M-8.98858e-06 644.365C-1.12553e-05 592.508 19.1958 545.136 50.8662 508.961L157.777 615.871L177.166 596.482L70.2558 489.573C106.43 457.905 153.8 438.71 205.655 438.71C255.341 438.71 300.91 456.333 336.456 485.668L225.621 596.503L245.01 615.892L356.407 504.493C390.465 541.189 411.29 590.337 411.29 644.35C411.29 696.204 392.094 743.574 360.424 779.748L242.03 661.354L222.642 680.742L341.035 799.137C304.861 830.805 257.492 850 205.64 850C151.631 850 102.484 829.178 65.7891 795.124L180.144 680.77L160.755 661.381L46.9629 775.173C17.6244 739.626 1.15883e-05 694.054 -8.98858e-06 644.365Z" fill="#222B39"/>
</svg>
