<svg width="285" height="85" viewBox="0 0 285 85" fill="none" xmlns="http://www.w3.org/2000/svg">
<path d="M20.5645 0C31.9219 0 41.1289 9.20701 41.1289 20.5645V36.7227C41.1288 39.1562 39.1562 41.1287 36.7227 41.1289H21.9355V21.9355H19.1934V41.1289H4.40625C1.97279 41.1287 0.000138274 39.1561 0 36.7227V20.5645C3.84333e-05 9.20704 9.20704 3.19551e-05 20.5645 0Z" fill="#2D2D2D"/>
<path d="M64.4355 85C53.0781 85 43.8711 75.793 43.8711 64.4355L43.8711 48.2773C43.8712 45.8438 45.8438 43.8713 48.2773 43.8711L63.0645 43.8711L63.0645 63.0645L65.8066 63.0645L65.8066 43.8711L80.5938 43.8711C83.0272 43.8713 84.9999 45.8439 85 48.2773L85 64.4355C85 75.793 75.793 85 64.4355 85Z" fill="#2D2D2D"/>
<path d="M43.8711 20.5659C43.8711 9.20847 53.0781 0.0014964 64.4355 0.00146394C75.3319 0.00146347 84.2471 8.47613 84.9531 19.1938L65.8066 19.1938L65.8066 21.9351L84.9531 21.9351C84.2484 32.6541 75.3329 41.1304 64.4355 41.1304C53.0781 41.1303 43.8711 31.9233 43.8711 20.5659Z" fill="#2D2D2D"/>
<path d="M-8.98858e-07 64.4365C-1.12552e-06 59.2511 1.91919 54.5139 5.08594 50.8965L15.7773 61.5869L17.7168 59.6484L7.02539 48.958C10.6429 45.791 15.3797 43.8711 20.5654 43.8711C25.5341 43.8711 30.0909 45.6337 33.6455 48.5674L22.5625 59.6504L24.501 61.5889L35.6396 50.4512C39.0451 54.1206 41.1288 59.0337 41.1289 64.4346C41.1289 69.6203 39.2093 74.3581 36.042 77.9756L24.2031 66.1357L22.2637 68.0742L34.1025 79.9141C30.4854 83.0804 25.7492 84.9999 20.5645 85C15.1634 85 10.2486 82.9172 6.5791 79.5117L18.0146 68.0771L16.0762 66.1377L4.69629 77.5176C1.76236 73.9629 1.29779e-06 69.4055 -8.98858e-07 64.4365Z" fill="#2D2D2D"/>
<path d="M97.774 62.1873V42.5934C97.774 33.1247 105.45 25.4487 114.919 25.4487C124.387 25.4487 132.063 33.1247 132.063 42.5934V62.1873" stroke="#2D2D2D" stroke-width="7.60233"/>
<path d="M280.309 22.9999L280.309 42.5938C280.309 52.0626 272.633 59.7385 263.164 59.7385C253.696 59.7385 246.02 52.0626 246.02 42.5938L246.02 22.9999" stroke="#2D2D2D" stroke-width="7.60233"/>
<mask id="path-7-inside-1_444_348" fill="white">
<path d="M164.882 23.0129C175.704 23.0129 184.476 31.7855 184.476 42.6067C184.476 43.3676 184.431 44.1183 184.346 44.8567H176.663C176.801 44.1279 176.875 43.3758 176.875 42.6067C176.874 35.9841 171.505 30.6155 164.882 30.6155C158.26 30.6156 152.891 35.9842 152.891 42.6067C152.891 49.2294 158.26 54.5987 164.882 54.5989C169.298 54.5989 173.154 52.2109 175.235 48.6575H183.523C180.974 56.5175 173.592 62.2004 164.882 62.2004C154.061 62.2003 145.289 53.428 145.289 42.6067C145.289 31.7855 154.061 23.0131 164.882 23.0129Z"/>
</mask>
<path d="M164.882 23.0129C175.704 23.0129 184.476 31.7855 184.476 42.6067C184.476 43.3676 184.431 44.1183 184.346 44.8567H176.663C176.801 44.1279 176.875 43.3758 176.875 42.6067C176.874 35.9841 171.505 30.6155 164.882 30.6155C158.26 30.6156 152.891 35.9842 152.891 42.6067C152.891 49.2294 158.26 54.5987 164.882 54.5989C169.298 54.5989 173.154 52.2109 175.235 48.6575H183.523C180.974 56.5175 173.592 62.2004 164.882 62.2004C154.061 62.2003 145.289 53.428 145.289 42.6067C145.289 31.7855 154.061 23.0131 164.882 23.0129Z" fill="#2D2D2D"/>
<path d="M164.882 23.0129V19.3391H164.882L164.882 23.0129ZM184.476 42.6067H188.15V42.6066L184.476 42.6067ZM184.346 44.8567V48.5306H187.624L187.996 45.274L184.346 44.8567ZM176.663 44.8567L173.053 44.1714L172.226 48.5306H176.663V44.8567ZM176.875 42.6067H180.548V42.6066L176.875 42.6067ZM164.882 30.6155V26.9416H164.882L164.882 30.6155ZM152.891 42.6067L149.217 42.6066V42.6067H152.891ZM164.882 54.5989L164.882 58.2727H164.882V54.5989ZM175.235 48.6575V44.9836H173.129L172.065 46.8006L175.235 48.6575ZM183.523 48.6575L187.018 49.791L188.577 44.9836H183.523V48.6575ZM164.882 62.2004L164.882 65.8743H164.882V62.2004ZM145.289 42.6067L141.615 42.6066V42.6067H145.289ZM164.882 23.0129V26.6868C173.675 26.6868 180.802 33.8144 180.802 42.6068L184.476 42.6067L188.15 42.6066C188.15 29.7565 177.733 19.3391 164.882 19.3391V23.0129ZM184.476 42.6067H180.802C180.802 43.2212 180.766 43.8324 180.696 44.4394L184.346 44.8567L187.996 45.274C188.096 44.4043 188.15 43.5141 188.15 42.6067H184.476ZM184.346 44.8567V41.1828H176.663V44.8567V48.5306H184.346V44.8567ZM176.663 44.8567L180.272 45.542C180.452 44.592 180.548 43.6106 180.548 42.6067H176.875H173.201C173.201 43.141 173.15 43.6637 173.053 44.1714L176.663 44.8567ZM176.875 42.6067L180.548 42.6066C180.548 33.9548 173.534 26.9416 164.882 26.9416V30.6155V34.2893C169.476 34.2893 173.201 38.0134 173.201 42.6068L176.875 42.6067ZM164.882 30.6155L164.882 26.9416C156.231 26.9418 149.218 33.9552 149.217 42.6066L152.891 42.6067L156.565 42.6068C156.565 38.0132 160.289 34.2894 164.883 34.2893L164.882 30.6155ZM152.891 42.6067H149.217C149.217 51.2581 156.23 58.2725 164.882 58.2727L164.882 54.5989L164.883 50.925C160.289 50.9249 156.565 47.2007 156.565 42.6067H152.891ZM164.882 54.5989V58.2727C170.657 58.2727 175.692 55.1452 178.405 50.5144L175.235 48.6575L172.065 46.8006C170.615 49.2766 167.939 50.925 164.882 50.925V54.5989ZM175.235 48.6575V52.3313H183.523V48.6575V44.9836H175.235V48.6575ZM183.523 48.6575L180.028 47.5239C177.956 53.9142 171.953 58.5266 164.882 58.5266V62.2004V65.8743C175.231 65.8743 183.991 59.1208 187.018 49.791L183.523 48.6575ZM164.882 62.2004L164.882 58.5266C156.09 58.5265 148.963 51.399 148.963 42.6067H145.289H141.615C141.615 55.4571 152.032 65.8741 164.882 65.8743L164.882 62.2004ZM145.289 42.6067L148.963 42.6068C148.963 33.8146 156.09 26.6869 164.882 26.6868L164.882 23.0129L164.882 19.3391C152.032 19.3393 141.615 29.7565 141.615 42.6066L145.289 42.6067Z" fill="#2D2D2D" mask="url(#path-7-inside-1_444_348)"/>
<path d="M160.493 39.1547L182.35 39.1547L184.251 44.8564L160.493 44.8564V39.1547Z" fill="#2D2D2D"/>
<mask id="path-10-inside-2_444_348" fill="white">
<path d="M232.941 23.0061C232.938 33.8252 224.167 42.595 213.347 42.595C202.528 42.5949 193.756 33.8251 193.754 23.0061H201.356C201.359 29.6265 206.726 34.9933 213.347 34.9934C219.968 34.9934 225.337 29.6265 225.339 23.0061H232.941Z"/>
</mask>
<path d="M232.941 23.0061C232.938 33.8252 224.167 42.595 213.347 42.595C202.528 42.5949 193.756 33.8251 193.754 23.0061H201.356C201.359 29.6265 206.726 34.9933 213.347 34.9934C219.968 34.9934 225.337 29.6265 225.339 23.0061H232.941Z" fill="#2D2D2D"/>
<path d="M232.941 23.0061L236.615 23.007L236.616 19.3322H232.941V23.0061ZM213.347 42.595L213.347 46.2688H213.347L213.347 42.595ZM193.754 23.0061V19.3322H190.079L190.08 23.007L193.754 23.0061ZM201.356 23.0061L205.03 23.0046L205.028 19.3322H201.356V23.0061ZM213.347 34.9934L213.347 38.6673H213.347L213.347 34.9934ZM225.339 23.0061V19.3322H221.667L221.666 23.0046L225.339 23.0061ZM232.941 23.0061L229.267 23.0052C229.265 31.7957 222.138 38.9211 213.347 38.9211L213.347 42.595L213.347 46.2688C226.196 46.2688 236.612 35.8546 236.615 23.007L232.941 23.0061ZM213.347 42.595L213.347 38.9211C204.556 38.921 197.43 31.7956 197.427 23.0052L193.754 23.0061L190.08 23.007C190.083 35.8546 200.499 46.2687 213.347 46.2688L213.347 42.595ZM193.754 23.0061V26.68H201.356V23.0061V19.3322H193.754V23.0061ZM201.356 23.0061L197.682 23.0076C197.686 31.6559 204.697 38.6671 213.347 38.6673L213.347 34.9934L213.347 31.3195C208.755 31.3195 205.032 27.597 205.03 23.0046L201.356 23.0061ZM213.347 34.9934L213.347 38.6673C221.997 38.6673 229.01 31.6563 229.013 23.0076L225.339 23.0061L221.666 23.0046C221.664 27.5967 217.94 31.3195 213.347 31.3195L213.347 34.9934ZM225.339 23.0061V26.68H232.941V23.0061V19.3322H225.339V23.0061Z" fill="#2D2D2D" mask="url(#path-10-inside-2_444_348)"/>
<mask id="path-12-inside-3_444_348" fill="white">
<path d="M193.757 62.1821C193.76 51.3631 202.531 42.5933 213.35 42.5933C224.17 42.5934 232.941 51.3632 232.944 62.1821L225.342 62.1821C225.339 55.5618 219.971 50.1949 213.35 50.1948C206.729 50.1948 201.361 55.5618 201.358 62.1821L193.757 62.1821Z"/>
</mask>
<path d="M193.757 62.1821C193.76 51.3631 202.531 42.5933 213.35 42.5933C224.17 42.5934 232.941 51.3632 232.944 62.1821L225.342 62.1821C225.339 55.5618 219.971 50.1949 213.35 50.1948C206.729 50.1948 201.361 55.5618 201.358 62.1821L193.757 62.1821Z" fill="#2D2D2D"/>
<path d="M193.757 62.1821L190.083 62.1812L190.082 65.856L193.757 65.856L193.757 62.1821ZM213.35 42.5933L213.35 38.9194L213.35 38.9194L213.35 42.5933ZM232.944 62.1821L232.944 65.856L236.619 65.856L236.618 62.1812L232.944 62.1821ZM225.342 62.1821L221.668 62.1837L221.669 65.856L225.342 65.856L225.342 62.1821ZM213.35 50.1948L213.351 46.521L213.35 46.521L213.35 50.1948ZM201.358 62.1821L201.358 65.856L205.031 65.856L205.032 62.1837L201.358 62.1821ZM193.757 62.1821L197.431 62.1831C197.433 53.3926 204.56 46.2671 213.35 46.2671L213.35 42.5933L213.35 38.9194C200.502 38.9194 190.086 49.3337 190.083 62.1812L193.757 62.1821ZM213.35 42.5933L213.35 46.2671C222.141 46.2672 229.268 53.3927 229.27 62.1831L232.944 62.1821L236.618 62.1812C236.615 49.3337 226.199 38.9195 213.35 38.9194L213.35 42.5933ZM232.944 62.1821L232.944 58.5083L225.342 58.5083L225.342 62.1821L225.342 65.856L232.944 65.856L232.944 62.1821ZM225.342 62.1821L229.016 62.1805C229.012 53.5325 222 46.5211 213.351 46.521L213.35 50.1948L213.35 53.8687C217.942 53.8688 221.666 57.5912 221.668 62.1837L225.342 62.1821ZM213.35 50.1948L213.35 46.521C204.701 46.521 197.688 53.5321 197.684 62.1805L201.358 62.1821L205.032 62.1837C205.034 57.5915 208.758 53.8687 213.35 53.8687L213.35 50.1948ZM201.358 62.1821L201.358 58.5083L193.757 58.5083L193.757 62.1821L193.757 65.856L201.358 65.856L201.358 62.1821Z" fill="#2D2D2D" mask="url(#path-12-inside-3_444_348)"/>
</svg>
